<svg version="1.2" xmlns="http://www.w3.org/2000/svg" viewBox="0 0 166 186" width="166" height="186">
	<title>logo-white1-svg</title>
	<style>
		.s0 { fill: #ffffff } 
	</style>
	<g id="b84aa982-36b9-4105-afe7-0d9a729afb16">
	</g>
	<g id="8b5ab683-ac08-4746-8f6f-14d869917815">
	</g>
	
			<g id="Layer">
				<path id="Layer" class="s0" d="m91.5 69.6c0.2-0.1 0.1-0.1 0.1-0.1-0.8 1.3-1.3 1.4-2.6 0.8-0.3-0.2-0.5-0.5-0.6-0.8-0.1-0.4-0.2-0.9-0.4-1.8-0.7 2.1-1.9 1.6-3 1.1-1.4-0.6-0.2-1.9-0.8-2.8-0.1 0.2-0.3 0.3-0.5 0.5-0.7 1-0.7 1-1.7 0.3-0.8-0.6-1.6-1.2-1.3-2.4 0.1-0.3-0.1-0.5-0.1-0.8-1 0.7-1.1 1.9-0.3 2.6 1 0.7 1.9 1.4 2.9 2.2 0.2 0.2 0.4 0.4 0.6 0.7q-1.9-0.8-3.7-1.7-3-1.3-6-2.7c-1.3-0.6-1.5-1.5-0.5-2.5q1.6-1.8 3.2-3.6c0.6-0.6 1.1-0.8 1.9-0.4 2.4 1.4 4.9 2.6 7.4 4 3.1 1.6 6.4 2.8 9.8 3.5 1 0.2 1.6 0.7 2.1 1.6 1.2 2.2 2.8 4 5.4 4.6 1.9 0.5 3.6 0 5.3-0.9 0.4-0.2 0.9-0.3 1.3-0.2 1.2 0.4 2.2 0.9 3.5 1.4-0.6 0.5-1 0.9-1.6 1.4 4.1 2.7 6.5 6.7 8.8 10.8-1.4-4.1-3.3-7.8-6.5-11.1 4.5 1.1 12.2 14.6 11.5 20.1-0.4-0.1-0.8-0.3-1.2-0.3-1.9-0.3-3.9-0.7-5.8-0.9-1.2-0.1-2.5-0.1-3.7-0.2-0.3 0-0.6-0.3-0.6-0.6-0.1-0.8-0.1-1.7-0.2-2.5 0.4-0.1 0.8-0.2 1.1-0.3q0.1-0.2 0.2-0.3c-1.7-0.1-1.9-1.4-2.2-2.5-0.2-1.1-0.9-2.3 0.5-3.3-0.9-0.2-1.8-0.3-2.5-0.7-0.8-0.4-0.9-1.2-0.3-2.3-1.1 0.6-1.8 0.5-2.6-0.4-0.6-0.7-1.2-1.4-0.9-2.6-0.7 0.4-0.7 1.4-1.6 1-1-0.5-2.2-0.9-1.7-2.6-0.7 0.9-1.3 0.9-2.1 0.5-0.7-0.3-1.5-0.4-1.3-1.4-1.3 0.6-2.3-0.4-3.4-0.8-0.2 0-0.3-0.5-0.4-0.8-0.3 0-0.8 0.1-1.2 0-1.1-0.4-2.3-0.9-3.3-1.4-0.4-0.2-0.6-0.9-1-1.4z"/>
			</g>
			<g id="Layer">
				<path id="Layer" fill-rule="evenodd" class="s0" d="m114.7 61q-0.5 0.6-0.9 1.2c-0.3 0.4-0.6 0.9-1.1 1.2-0.3-1.4-0.1-2 0.7-2.4q-0.1-0.2-0.1-0.3c-0.2 0.1-0.5 0.1-0.6 0.2-0.4 0.5-0.8 1.1-1.2 1.6q-0.1-0.1-0.2-0.1c0-0.6 0.1-1.2 0.1-1.8-0.4 0.3-0.8 0.5-1.4 0.9 0.2-0.8 0.4-1.4 0.6-2.1 0.5 0.3 1 0.5 1.5 0.8q0.1-0.1 0.1-0.2c-0.4-0.3-1-0.4-1.1-0.8-0.1-0.4 0.3-0.9 0.4-1.4-0.2-0.2-0.6-0.5-0.9-0.8-0.3-0.3-0.5-0.7-0.8-1.1 0.6-0.2 0.9-0.3 1.4-0.5-0.1-0.3-0.2-0.5-0.3-0.9q0.4 0 0.7 0 0.1 0 0.1-0.1-0.5-0.3-0.9-0.6c-0.6 0.8-1.1 1.5-1.6 2.3 0.2 0.5 0.6 1.1 0.9 1.7q0 0 0 0.1c-1.4-1.1-2.8-2.2-4-3.4-1.3-1.2-2.6-2.1-4.3-2.5-0.3 0-0.5-0.1-0.7-0.4 1.4-0.2 2.8-0.4 4.3-0.5-0.2-0.4-0.3-0.7-0.5-1.1 1 0 1.9 0 2.9 0 0-0.7 0-1.2 0-2-0.2 0.4-0.2 0.7-0.4 1q-1.7-0.5-2.6-2.1c-0.4-0.8-0.8-1.6-1.3-2.3-0.4-0.5-1-1-1.7-1.4 1 1.3 2 2.5 2.2 4.2-1.5 0.1-3 0-4.2-1-1-0.8-1.1-2.1 0-2.9-0.1-0.3-0.3-0.7-0.6-1.2 0.8 0.2 1.4 0.4 2 0.6q0.1-0.1 0.1-0.2c-1.1-0.5-2.2-0.9-3.5-1.5 0.7-0.2 1.2-0.3 1.8-0.5-0.5-0.3-0.9-0.6-1.6-1.1 0.7-0.1 1.2-0.1 2-0.3-0.4-0.4-0.6-0.8-0.9-0.9-0.3 0-0.9 0.1-1.1 0.4-0.6 0.6-1 1.4-1.5 2.2 0 0-0.1-0.1-0.1-0.1-0.9-4.2-3.4-7.5-6.2-10.6-2.5-2.7-5-5.3-7.6-7.8-2.8-2.7-5.8-5.2-8.7-7.8 0.2 0 0.4 0.1 0.6 0.2 6 2.9 11.3 6.8 16 11.4 3.4 3.3 6.4 6.9 8.4 11.3 0.4 0.9 1.1 0.4 1.8 0.4-0.1-0.5-0.2-1-0.4-1.7 0.7 0.4 1.1 0.6 1.7 0.9 0.2-0.3 0.3-0.6 0.5-1 0.3 0.4 0.6 0.8 1.1 1.3 0.2-0.3 0.3-0.5 0.4-0.8 0.4 0.5 0.8 0.8 1.2 1.3 0.1-0.4 0.2-0.8 0.3-1.1q0.1-0.1 0.3-0.1 1.2 2.4 2.4 4.8c0 0.2 0.2 0.4 0.3 0.4 0.9 0.3 1.1 1 1.2 1.7q0.4 1.8 0.7 3.6c0 0.3-0.2 0.7-0.3 1.1 0.5 0.2 1.3 0.3 1.1 1.4 0.5-0.1 0.9-0.1 1.4-0.1 0 0.8 0.2 1.3 1.1 1.4 0.3 0 0.5 0.8 0.8 1.4 0.1 0 0.3 0 0.6 0 0.4-0.1 0.8 0 0.9 0.5 0.1 0.2 0.4 0.4 0.5 0.4 0.3 0 0.6-0.2 0.6-0.4 0.4-1.5 0.8-3.1 1-4.7 0.2-1.6-0.6-2.8-2-3.7-2-1.3-3.7-3-4.7-5.3-0.3-0.7-0.5-1.4-0.5-2.1 0-1.3 0.1-2.5 0.4-3.8 0.2 0.7 0.4 1.5 0.6 2.2 0.3-0.2 0.5-0.3 0.8-0.6 0.1 0.9 0.2 1.7 0.3 2.7 0.3-0.3 0.4-0.5 0.6-0.8 0 0.7 0 1.3 0 1.9 0.4-0.2 0.7-0.4 1-0.6 0.1 0.4 0.2 0.7 0.2 1 0.2-0.1 0.3-0.2 0.5-0.3 0.2 0.9 0.4 1.7 0.6 2.5q0.1 0.1 0.3 0.2 0.2-0.5 0.5-1 0.1 0.1 0.2 0.1c0 1.8 1.5 2.7 2.2 4.1 0.8 1.5 0.8 3.2 0.5 4.9q-0.4 2-1 4c0 0.3-0.4 0.5-0.7 0.9 0.3 0.3 0.7 0.8 1.2 1.2 0.5 0.5 0.5 1 0.3 1.6-0.4 0.8-0.6 1.7-1 2.5-0.1 0.2-0.5 0.5-0.8 0.5-0.6 0.1-1.3 0-1.9 0.1-0.3 0-0.6 0.3-0.9 0.4q-0.1 0.1-0.1 0.1zm-2.5-2.9c1.1 0.3 1.8-0.2 2-1.1 0.4-1.6-0.6-3.3-2.4-3.7 0.6 0.6 1 1.1 1.4 1.5 1.2 1.4 0.8 2.7-1 3.3zm-3.9-15.7q-0.1 0-0.3 0-0.2 1.4-0.3 2.8 0.1 0 0.3 0 0.2-1.4 0.3-2.8zm1.2 5.8c-0.8-1-1.2-1.1-1.7-0.4 0.5 0.1 1 0.2 1.7 0.4z"/>
			</g>
			<g id="Layer">
				<path id="Layer" class="s0" d="m71.8 93.2c6.6-1.2 12.9-1.1 19 1.1 0.4 0.1 0.7 0.3 1.1 0.5 0.7 0.3 1 0.7 1.2 1.5 0.5 2.8 2.2 4.8 4.6 6.1 1.7 0.9 3.4 1.6 5.1 2.4 0.4 0.1 0.7 0.2 1 0.4-2.4 0.2-4.8-0.1-7-1.3-2.2-1.2-3.6-3.1-5.2-5 0.1 1.6 0.3 3.2-1.2 4.5 1.2 0.9 2.4 1.8 3.6 2.7-2.3-0.6-5.2-1.5-6.3-3.5 0.2-0.2 0.6-0.3 0.8-0.6 1.3-1.2 1.3-2.5 0.1-3.7-0.5-0.5-1.2-0.9-1.7-1.3-0.3-0.2-0.5-0.3-0.9-0.6 0.9-0.1 1.5-0.2 2.2-0.3q0-0.1 0-0.2c-2.2-1.4-4.6-1.5-7.3-1.6 1 1.3 1.7 2.6 3.5 2.7 2.7 0.2 4 2.4 3 4.6-0.3 0.6-0.9 1.2-1.5 1.5-1.6 0.7-4 0-5.2-1.4q0.4-0.5 0.8-1-0.1-0.2-0.1-0.3c-0.5 0.2-1.1 0.4-1.4 0.7-0.9 0.8-2 0.9-3.2 0.9-0.2 0-0.5-0.3-0.7-0.6-0.3-0.4-0.6-0.9-0.9-1.4q-0.2 0.1-0.4 0.2c0.2 0.4 0.3 0.8 0.6 1.1 0.5 0.6 0.7 1.2 0.7 1.9 0 0.4 0.2 0.9 0.5 1.1 1.5 1.4 3.1 2.7 4.5 4.2 0.6 0.5 1 1.1 0.9 2.2-0.6-0.3-1-0.5-1.4-0.7-0.6-0.3-1.1-0.6-1.7-0.9-0.9-0.3-1.2-0.1-1.3 0.8 0 0.3 0 0.6-0.1 0.8-0.1 0.2-0.3 0.5-0.4 0.5-0.2 0-0.4-0.3-0.5-0.5-0.1-0.5-0.2-1-0.4-1.5-0.1-0.4-0.4-0.9-0.6-1.3q-0.1 0.1-0.2 0.1c0 0.3 0 0.7 0 1.1-0.2-0.1-0.4-0.1-0.5-0.2q-2.5-1.8-5.1-3.7c-0.2-0.2-0.5-0.5-0.5-0.8-0.6-2.2-1.2-4.5-2.9-6.3 2.3-1.3 4.6-1 7 0-0.4-0.4-0.6-0.7-0.9-1.1 3.2-0.4 6.2-1.5 9.2 0.2 0.5 0.3 0.8 0.2 1.1-0.5-1.8-0.4-3.6-1-5.3-1-2.3-0.1-3.8-1.3-5.7-2.5z"/>
			</g>
			<g id="Layer">
				<path id="Layer" class="s0" d="m106 85.1c2.6 3.5 2.8 7.7 3.5 11.8 2.2-4.3-0.2-12.1-4.7-14.7q-0.9 3.2-1.8 6.3c0.2-3.8 0.4-7.6-1.5-11.1q0.1-0.1 0.2-0.1 0.6 0.4 1.1 0.8c1.9 1.4 3.7 2.6 5.5 4.1 3.8 3.1 5.3 7.2 4.8 12-0.2 2.8-1 5.4-2.6 7.7q-1.8 2.5-4.8 2.4c-2.7-0.1-5.3-1-7.4-2.5-2.4-1.7-3.9-4.1-4.7-7.1 1.5 0 2.3 1.2 3.5 1.9-0.2-0.6-0.3-1-0.5-1.4q2.2 0.8 4.3 1.6 0.1-0.2 0.3-0.4-1-0.8-2-1.6 0-0.1 0.1-0.2c1.3 0 2.5 0 4 0-0.7-0.6-1.1-1-1.6-1.4 1.1-0.7 2.6-0.5 3.3-1.8q-1.1 0.2-2.1 0.3 0-0.2-0.1-0.3c1.7-1.8 2.5-4 3.2-6.3z"/>
			</g>
			<g id="Layer">
				<path id="Layer" class="s0" d="m117.6 132.6c0.1-0.2 0.2-0.5 0.3-0.8 2.6 0.2 6.3 2.5 7.9 5.1 0.3-0.5 0.5-1 0.8-1.7 2 2.2 3.1 4.8 4.8 7.2 0.3-0.4 0.5-0.7 0.8-1.1 3.2 4 7.5 4.3 12 4q0.1 0.2 0.2 0.3c-0.5 0.4-0.9 0.9-1.4 1.2-1.6 0.9-3.3 1-5.1 0.9-3.5-0.1-6.7-1.3-9.6-3.4-3.1-2.4-6.3-4.6-9.8-6.2-4.3-2-8.8-2.7-13.4-1.6-2.4 0.6-4.8 1.7-7.3 2.4-1.5 0.5-3.2 0.7-4.8 1.1q-0.1-0.2-0.1-0.4 1-0.5 2.1-1.1c2.3-1.3 4.6-2.7 6.9-4 2-1 4.1-1.4 6.3-1.5 0.8 0 1.6-0.1 2.5-0.1q-0.1-0.3-0.2-0.5c-0.2-0.7-0.1-0.9 0.7-0.8 2.1 0.3 4.2 0.7 6.4 1z"/>
			</g>
			<g id="Layer">
				<path id="Layer" class="s0" d="m94.7 143.1c1.1-0.5 2.2-1.2 3.3-1.6 3.1-1 6.1-2.1 9.2-2.7 2.6-0.5 5.4-0.4 8.1-0.3 3.4 0.2 6.3 2 8.9 4.1 2.3 1.7 4.6 3.6 7 5.2 1.3 1 2.9 1.7 4.4 2.5 0.3 0.1 0.6 0.4 1.1 0.7-4.4 0.8-8.4 0.9-12.7 0.6 0.8-0.7 1.5-1.2 2.2-1.8-3.3 0.2-6.3-0.1-9.4-1.3 0.8-0.9 2.1-0.9 2.3-2.1-2.2-0.6-4.7 0.1-7-1 0.9-0.8 1.7-1.4 2.4-2.1q0-0.1 0-0.3c-1.1-0.3-2.2-0.7-3.4-0.9-3.3-0.9-6.7-0.3-10 0.3q-2.9 0.5-5.8 1c-0.2 0-0.3 0-0.5 0q-0.1-0.1-0.1-0.3z"/>
			</g>
			<g id="Layer">
				<path id="Layer" class="s0" d="m74 34.3c-0.9-2.1-2.9-3.9-5.9-3.4-1.7 0.3-3.3 0.8-4.7 2-1.1 1-2.5 1.6-3.7 2.4q-0.1-0.1-0.2-0.1c0.4-0.5 0.8-1 1.2-1.4q1.5-1.4 3-2.7c4.2-3.9 8.6-3 11.9 1.2 0.9 1.2 1.4 2.8 2.3 4.4-0.8 0-1.2-0.1-1.6 0-1.5 0-3.1-0.2-4.5 0.1-4 0.6-7 2.5-8.5 6.4-0.8 2-1.5 4.1-2.2 6.2-0.1 0-0.2 0-0.2-0.1-0.7-1.4-1.8-1.8-3.3-1.5-0.4 0-0.9 0-1.3-0.1-1.7-0.8-1.9-0.4-1.3-3.5 0.6 0.2 1.1 0.3 1.6 0.4 0.3 0 0.7-0.1 0.8-0.3 0.5-0.6 0.9-1.3 1.3-2 0.4-0.6 0.7-1.2 1.1-2-1.4 1-2.5 1.9-3.7 2.8-0.1-0.2-0.1-0.3-0.1-0.3 1.2-1.9 2.3-3.9 3.6-5.7 0.8-1 1.9-1.8 2.9-2.5 0.7-0.5 1.5-0.8 2.1-1.4 1.7-1.2 3.7-1.5 5.6-1.9 0.2-0.1 0.5 0 0.6 0.2 0.5 0.6 0.9 1.3 1.5 2-6.4 1.5-10.6 4.9-11.8 11.5 0.1-0.2 0.3-0.3 0.4-0.6q0.4-0.7 0.6-1.6c0.8-2.6 2.4-4.4 4.8-5.7 2.2-1.3 4.4-2.3 7-2.5q0.2 0 0.4-0.1 0.2-0.1 0.3-0.2z"/>
			</g>
			<g id="Layer">
				<path id="Layer" class="s0" d="m103.8 61.9c-1.1-0.1-1.1 0.6-1.1 1.3 0.3 0 0.6 0 0.8 0.1 0.2 0.2 0.6 0.4 0.6 0.6 0.2 0.8 0.7 1 1.3 0.9 0.5-0.1 1-0.3 1.5-0.4 1.1-0.1 2.4 0.4 2.4 2.1-0.5 0.1-1.1 0.3-1.5 0.4 0.2 0.5 0.5 0.9 0.4 1.2-0.1 1 0.1 2.1-0.9 2.8-1 0.6-3.9 0.7-4.8-0.1-0.2-0.1-0.4-0.4-0.4-0.6-1.6-6-4.4-11.3-8-16.2-0.1-0.2-0.2-0.4-0.4-0.7 1.4-0.2 2.7-0.4 4-0.5 1.7-0.2 1.7-0.1 1.6 1.6q0 1.3 0 2.6c0 0 0.1 0.1 0.1 0.2 1.1-0.1 1.5 0.4 1.4 1.5-0.1 0.9 0.8 0.5 1.2 0.8 0 0.5 0 1 0 1.7q0.9-0.3 1.7-0.5c-0.3-0.5-0.6-0.9-0.7-1.4-0.2-1-0.7-1-1.4-0.7-0.1 0-0.2 0.1-0.5 0.1 0-0.5 0-1-0.1-1.4-0.2-0.3-0.6-0.5-1-0.9q0-1.8 0-4.5c1.5 0.6 2.8 1.1 4 1.6 0.1 0.1 0.1 0.5 0.1 0.7-0.1 0.6-0.2 1.2-0.3 1.8-0.1 0.5-0.1 1 0.6 1.2 0.1 0 0.2 0.1 0.2 0.2-0.1 1 0.7 0.9 1.3 1.1q-0.2 0.5-0.3 0.8 0.1 0 0.3 0c0.1 0.4 0.3 0.8 0.3 1.2-0.1 0.6-0.3 0.6-1.8 0.5 0.4 0.7 1.1 0.8 1.7 0.8q1 0 1.9-0.1c2-0.2 3.4 0.7 4.2 2.4 0.7 1.3 1.6 2.4 2.9 3.2 0.6 0.4 1.5 0.7 2.2 0.8 0.9 0.1 1.7 0 2.6 0.2-0.7 0.8-1.8 0.8-2.8 1q0.9 0.4 1.7 0.7-0.1 0.1-0.1 0.3c-1 0.4-2 0.3-3-0.1-1.5-0.6-2.4-1.9-3.2-3.1-0.6-0.9-1-1.8-1.5-2.6-0.6-1.2-1.6-1.8-3-1.7-1 0.1-2 0-3.1 0.1-0.7 0-1.2-0.1-1.1-1z"/>
			</g>
			<g id="Layer">
				<path id="Layer" class="s0" d="m53.9 132.8c0.8 0.9 1.4 1.7 1.9 2.4 4.2 6.4 9.9 10 17.8 9.9 4.5-0.1 8.8-1.1 13.1-2.4 5.7-1.7 11.4-3.5 17.2-5.2 1.6-0.5 3.3-0.6 5-0.9 0.3 0 0.6 0.1 1 0.2-0.1 0.2-0.1 0.3-0.2 0.3-3.7 0.4-6.9 2.1-10.3 3.5-5.8 2.4-11.6 4.8-17.7 6.3-1.4 0.4-3 0.5-4.5 0.5-4.2 0.3-8.4 0-12.5-1-2.2-0.5-4.1-1.5-5.7-2.9-1.9-1.5-3.6-3.2-5.3-4.8-0.3-0.2-0.5-0.6-0.5-1 0.2-1.5 0.5-3.1 0.7-4.9z"/>
			</g>
			<g id="Layer">
				<path id="Layer" class="s0" d="m60.6 56.8c-1 0-1.9 0.1-2.9 0.2q0 0.1 0 0.2c0.4 0 0.8 0.2 1.2 0.1 0.7-0.2 1.1 0.1 1.4 0.8 0.6 1.5 1.7 2.5 3.2 2.8 1.2 0.3 1.7 0.9 1.9 2.1 0.3 3.2 2.1 5.5 4.9 7.2q2.5 1.5 5.1 3.1c0.4 0.3 0.8 0.6 1.2 0.9q0 0.1-0.1 0.3c-2.7-1.1-5.5-2.2-8.2-3.3-0.9-0.3-1.8-0.8-2.6-1.4-1.2-0.9-1.7-2.3-2.1-3.8-0.1-0.4-0.2-0.8-0.2-1.2 0-1.5-0.7-2.4-2.1-3-1.3-0.7-2.5-1.6-3.2-2.9-0.5 0.2-1 0.4-1.4 0.5-0.3 0.1-0.7-0.1-0.8-0.3q-0.7-1.6-1.3-3.3c-0.1-0.3-0.2-0.9 0-1.1 0.4-0.4 0.8-0.9 1.6-0.5 1.1 0.4 2.2 1 3.4 0.5 0.7-0.2 1.3-0.6 2.1-0.9 2.3 4.3 6.1 7.4 9.3 11.1-0.7 0.1-1.2 0.2-1.8 0.3-0.1 1 0.5 1.7 1.1 2.2 2.3 2 4.9 2.9 7.9 2.7-0.9-2.2-2.9-3.2-4.5-4.7 2.9 0.2 9.8 5.4 10.9 8.7-0.5-0.2-1-0.3-1.4-0.5q-2.4-1.4-5.2-1.2c-2.1 0.2-3.7-1-5.5-1.8-3.4-1.6-5.4-4.4-6.6-7.8-0.5-1.3-1.2-2.3-2.6-2.8-1.5-0.6-2.4-1.8-2.7-3.2z"/>
			</g>
			<g id="Layer">
				<path id="Layer" fill-rule="evenodd" class="s0" d="m80.6 31.3c-0.1-0.5-0.2-0.7-0.2-0.7 1.6 0.4 3.2 0.9 4.9 1.3 0.9 0.2 1.9 0.2 2.8 0.5 3.7 0.8 6 3.3 7 6.9 0.6 2.2 1.7 4.1 3.1 5.9 0.2 0.3 0.4 0.6 0.6 0.9-2.3-1.8-5.2-3.1-6.4-6.2-0.5-1.3-1.3-2.6-2.1-3.7-1.5-2.1-3.8-2.9-6-3.3q1.5 1.8 3.2 3.9c-1.4 0.1-1.8 0.5-1.6 1.6 0.3 1.3 0.8 2.5 1.2 3.6 0.2 0.6 0.6 1.1 0.8 1.8q-0.4-0.2-0.8-0.3c-2.2-0.9-4.4-1.8-6.7-2.6-0.7-0.2-1-0.6-1.2-1.2q-0.2-1.5-0.5-2.9c-0.8-3.7-2.7-6.5-6.3-7.8-0.5-0.1-1-0.4-1.5-0.6 1-1.1 2.8-1.5 4.2-0.7 1.5 0.8 2.9 1.8 4.3 2.8 0.4 0.2 0.7 0.4 1.2 0.8zm1.6 0.6q-0.1 0.1-0.1 0.2 0.5 0.2 0.9 0.3 0.1 0 0.1-0.1-0.5-0.2-0.9-0.4z"/>
			</g>
			<g id="Layer">
				<path id="Layer" class="s0" d="m92.7 114.6c1 0.4 2.1 0.3 2.4 1.6-1 0.1-1.8 0.1-2.7 0.1-0.5 0-0.7 0.2-0.7 0.7-0.1 0.6-0.2 1.3-0.1 1.9 0 0.5 0.3 1 0.5 1.4 0.2 0.3 0.5 0.7 0.8 1-1.5 0.7-2.5 0.2-2.7-1.3-0.1-0.7 0-1.5 0-2.5-0.2 0.5-0.3 0.8-0.5 1.4-0.3-0.5-0.6-0.9-0.7-1.2-0.2-1.2-0.8-2.2-1.8-2.9-0.2-0.1-0.4-0.5-0.4-0.8-0.1-1.1-0.5-1.7-1.5-1.9-1.2-0.2-2.5-0.1-3.7-0.2-1.2 0-1.2 0-1.5-1.5 2 1.5 3.8-0.4 5.7-0.2 0.2 0.1 0.5-0.4 0.9-0.9q2.5 1.8 4.9 3.6c0.1 0 0.4-0.2 0.6-0.3 0.8-0.2 1.7-0.3 2.5-0.5 0.8-0.2 1.4 0.2 1.7 0.8 0.7 1.3 1.7 2 2.9 2.6 0.8 0.3 1.2 1.8 0.8 2.3 2.1 3.2 2.4 6.8 2.4 10.4q-0.1 0-0.2 0.1c-0.1-0.2-0.2-0.3-0.3-0.4-0.9-1.8-2.1-3.3-3.6-4.6-1.6-1.6-1.6-2.4-0.3-4.3q0.4-0.6 0.9-1.3c-1.4-0.4-1.7-0.2-1.9 1-0.1 0.4-0.2 0.8-0.4 1.4-0.3-0.5-0.5-0.8-0.7-1.1 1.2 3.9 0.6 7.8 0.2 11.7q-0.2 0-0.3 0-0.2-0.7-0.4-1.5c-0.4-1.9-0.7-3.9-1.1-5.8-0.4-1.3-0.9-2.5-2-3.4-0.7-0.6-0.6-1.3-0.2-2.1 0.4-0.7 1.5-1.5 2-1.3 0.5 0.2 0.8 0.7 1.1 1 0.6-1.9-0.5-3.3-2.6-3z"/>
			</g>
			<g id="Layer">
				<path id="Layer" class="s0" d="m109.1 105.3c3.2-3.1 4.7-7 5.7-11.1 0.5-1.7 0.4-1.8 2.1-1.6 2.8 0.4 5.6 0.8 8.6 1.3-0.5 1.8-1 3.6-1.6 5.3-1.1 3.1-2.8 6-5 8.5-1.3 1.4-2.9 2.6-4.8 3.2-0.3 0.1-0.8 0.1-1.1 0-1.4-0.9-2.5-2.1-3-3.7-0.2-0.7-0.2-1 0.6-1.2 2.4-0.4 4.3-1.6 5.8-3.9-1.1 0.4-1.9 0.7-2.9 1.1 2-2 3.7-4 4.5-6.8 0.8 0.5 1.7 1 2.4 1.5 0.2 0.1 0.3 0.5 0.2 0.6-1.4 3-3 5.7-5.5 7.7-0.4 0.2-0.7 0.5-1 0.8 0.2 0.3 0.4 0.6 0.6 0.9 3-2.6 6.3-4.9 7.3-9 0.2-0.9 0.3-1.9 0.5-2.9-0.8-0.1-1.6-0.1-2.3-0.2-0.9-0.1-1.8-0.2-2.6-0.3-0.7-0.2-1.1-0.1-1.3 0.7q-1.4 4.5-4.9 7.6c-0.7 0.6-1.5 1-2.3 1.5z"/>
			</g>
			<g id="Layer">
				<path id="Layer" class="s0" d="m99.9 81.6c-0.7-2.2-2-3.7-3.6-5-2.8-2.3-5.9-4.1-9.4-5.4 0 0-0.1 0-0.1-0.3 0.5 0.1 1 0.2 1.5 0.3 3.6 0.6 6.8 1.9 9.7 4.1 2.4 1.8 3.4 4.4 4.2 7.1 0.3 1.3 0.4 2.6 0.5 3.9 0.1 0.3-0.1 0.7-0.2 1.3-0.6-0.6-1.2-1-1.7-1.5-3.4-3.3-7.4-5.2-11.8-6.7-2.7-1-5.3-2.3-8-3.5-0.8-0.4-1.6-1.1-2.3-1.7-0.4-0.2-0.6-0.6-0.9-1 2.8 0 5.4 0.5 7.9 1.9-0.4-2.4-1.9-3.9-3.2-5.5 2.2 1.3 4.4 2.5 5.4 5.1q0.3 0.5 0.4 1.1c0.2 0.7 0.7 1.1 1.5 1.4 1.3 0.5 2.7 1.1 4.1 1.6q0.1-0.1 0.2-0.2c-1-0.9-1.8-1.8-2.8-2.6-1-0.8-2.1-1.5-3.3-2.4 5.3 0.9 8.3 4.7 11.9 8z"/>
			</g>
			<g id="Layer">
				<path id="Layer" class="s0" d="m90.3 106.1c0.6 0.1 1.2 0.2 1.8 0.3 5 1.4 9.8 1 14.6-1 0.6-0.2 1-0.2 1.2 0.5 0.6 1.9 2 3.3 3.4 4.8 0.2 0.3 0.4 0.6 0.7 1-2.2 1-4.4 1.2-6.6 1.1-1 0-2.1 0.2-3.2 0-1.4-0.2-2.9-0.4-4.3-0.9-3.9-1.4-7.8-2.9-11.7-4.3-2.2-0.7-4.5-1.4-6.8-2.2-0.4-0.2-0.9-0.4-1.6-0.7 4.2-0.8 8.1-0.7 12.1 0.4q-1.2 0.3-2.2 0.6 0 0.1 0 0.2c6.1 2.7 12.2 5.2 19.3 4.5-0.6-0.8-1-1.5-1.5-2.2-0.6 1.3-0.6 1.2-2 1.4-3.8 0.3-7.3-0.9-10.9-2.3-0.8-0.3-1.6-0.6-2.4-1q0.1-0.1 0.1-0.2z"/>
			</g>
			<g id="Layer">
				<path id="Layer" class="s0" d="m70.9 49.4c-0.2 0.9-0.5 1.5-0.7 2.2 0 0.1-0.1 0.3-0.1 0.4q1.1 2.1 2.2 4.2c0.1 0.2 0.3 0.2 0.7 0.5-0.4-2-2.3-3.3-1.5-5.5 1.3 2.5 3.1 4.4 5.6 5.7q0 0.1 0.1 0.3-0.3 0.2-0.7 0.4c-2.3 1-3.8 2.9-5.4 4.8-0.6 0.7-1 0.8-1.6 0.2-3.1-2.5-5.5-5.5-6.6-9.4q-0.1-0.2-0.2-0.5c-0.1-1.3-0.1-1.3 1.1-1.8 1.9-0.8 3.9-1.4 6.1-1.5 0.2 0 0.4 0 1 0z"/>
			</g>
			<g id="Layer">
				<path id="Layer" class="s0" d="m136.1 138.5c0.2-0.6 0.4-1.2 0.7-2.1 0.9 1 1.8 1.9 2.8 3 0.2-0.4 0.4-0.6 0.4-0.9 0.3-0.8 0.8-0.8 1.4-0.4 1 0.5 2 1 3 1.6 0-0.5-0.1-1-0.1-1.5 2.4 0.4 4.2 1.6 5.4 3.6 0.8 1.4 1.6 2.8 2.3 4.1 0.1 0.1 0.1 0.3 0.1 0.7-0.6-0.3-1.1-0.5-1.5-0.9-2.5-2.5-5.6-2.7-8.9-2.5q-1.8 0.2-3.6 0c-2-0.2-3.5-1.2-4.7-2.8-0.4-0.5-0.8-1-1.3-1.5-0.3 0.5-0.5 0.9-0.8 1.4q-0.1 0-0.2 0c-0.6-2.9-2.5-4.8-4.6-6.9 2.1-0.5 3.9 0.1 5.4 1.2 1.5 1.2 2.8 2.6 4.2 3.9z"/>
			</g>
			<g id="Layer">
				<path id="Layer" class="s0" d="m50.1 118.6c0.8-1.1 1.6-2.1 2.4-3.2 1.3-2 2.4-4 3.8-5.8 0.8-1.1 1.9-1.9 2.9-2.7 1.2-1 1.4-1.7 0.6-3.1-0.5-0.8-1.2-1.6-1.8-2.4 0.2-0.1 0.2-0.2 0.3-0.1 1.9 0.8 3.3 2.2 4 4.1 0.4 1 0 1.4-0.7 2.1-1.8 1.5-3.5 3.2-5.1 4.9-1.8 2.1-3.3 4.5-4.1 7.2 0 0.1-0.1 0.3-0.3 0.4-1.6 1.4-2.4 3.2-3 5.1 0 0.2-0.1 0.3-0.2 0.5-0.6-2.7-1-5.3-0.5-8 0.1-1.1 0.3-2.3 0.6-3.5 0.7-3.3 2.4-6.3 4.3-9.1 1-1.5 2.1-2.9 3.2-4.4 1.4 1.1 2 2.7 2.2 4.4 0 0.2-0.1 0.5-0.3 0.6q-2.9 3.8-5.9 7.6-0.2 0.3-0.4 0.5-0.1-0.2-0.1-0.2c1.2-2.6 1.9-5.5 3.8-7.8 0.5-0.6 0.5-0.6-0.2-1.4-3.2 4.2-5 9-5.9 14.1q0.2 0.1 0.4 0.2z"/>
			</g>
			<g id="Layer">
				<path id="Layer" class="s0" d="m56.5 100c1.1-1.3 2.3-2.3 3.7-3.1q3.4-2 6.8-3.7c1.3-0.7 2.6-0.8 3.8 0.2 1 0.7 1.9 1.4 2.9 2.1q0 0.2 0 0.3c-0.8 0.2-1.6 0.4-2.4 0.5-0.9 0.1-1.9 0-2.8 0.1-2.2 0.1-3.9 1.5-5.9 2.3 0.8 1.4 1.6 2.7 2.4 4.1q0.1 0 0.2-0.1c0-1.3 0-2.7 0-4.3 1.9 2 2.9 4.1 3.4 6.5-1.9 0.4-3.6 0.7-5.5 1.1-0.1-4.1-3.1-5.2-6.6-6z"/>
			</g>
			<g id="Layer">
				<path id="Layer" class="s0" d="m55.6 59c-0.1 1.9 0.8 2.9 2.2 3.6 0.6 0.3 0.9 0.7 0.6 1.4-0.9 0-2-0.2-2.6 0.2-0.6 0.4-0.9 1.5-1.3 2.3-0.6 0-0.8-0.5-0.6-1.1 0.3-1.1-0.1-2-0.5-3-0.2-0.3-0.6-0.5-0.9-0.6-0.4-0.1-0.8 0-1.2 0-0.4 0-0.8-0.1-0.9-0.7-0.1-0.3-0.6-0.5-1.1-0.5 0.6 0.8 1.2 1.7 1.7 2.6 0.4 0.8 0.3 0.8-0.6 1.2 0.3 0 0.6 0.1 0.8 0.1 1.5 0.2 1.5 0.2 1.1 1.8-0.9-0.9-1.8-0.5-2.6 0.1-0.9 0.7-0.9 1.7-1 2.8q-0.5 0-0.9 0c-0.6 0-0.7-0.3-0.7-0.8q0.3-1.8 0.5-3.7c0.2-1.4-0.1-2-1.4-2.4-1.1-0.4-2.2-0.6-3.4-0.9 0.1-1.6 0.2-3.4 0.4-5.3 0.4 0.4 0.8 0.6 1.1 0.9 1 0.8 2.1 1.2 3.5 0.9 0.3-0.1 0.9 0 1.2 0.3 1.1 0.9 2.3 1.4 3.8 1.2 0.9-0.2 1.7-0.3 2.8-0.4z"/>
			</g>
			<g id="Layer">
				<path id="Layer" class="s0" d="m104.6 36.6c-0.3-0.3-0.7-0.7-1-1.1q-0.3 0.2-0.7 0.4c-0.2-0.2-0.3-0.4-0.4-0.4-0.8 0.1-1.5 0.1-2.2 0.2q0-0.1 0-0.2-0.3 0.3-0.7 0.6c-0.1-0.3-0.4-0.5-0.5-0.8-1-2.8-2.4-5.4-3.8-8.1-2.3-4.5-5.5-8.4-8.4-12.5q-0.1-0.1 0-0.3c7.4 6.2 14.9 12.3 17.7 22.2z"/>
			</g>
			<g id="Layer">
				<path id="Layer" class="s0" d="m124.8 132.1c0.1 0.6 0.3 1.2 0.5 2-2.9-1.7-5.5-3.5-9-3.5 0.1 0.4 0.2 0.7 0.2 1.1-1.3-0.3-2.5-0.7-3.7-0.9-1.3-0.1-2.5 0-3.8 0q0.4 0.7 0.6 1.3c-1.9 0-3.7 0-5.5 0q0-0.2 0-0.3c0.2-0.1 0.3-0.3 0.5-0.4 1.2-0.6 2.4-1.3 3.6-2 3.6-2.1 7.3-2.3 11.3-1.4q2.6 0.5 5.3 1c1.9 0.4 3.7 0.1 5.5-0.7q0.5-0.3 1.2-0.4c-1.7 2.3-4.2 3.1-6.7 4.2z"/>
			</g>
			<g id="Layer">
				<path id="Layer" class="s0" d="m128.1 105.4c-0.3 0-0.4 0-0.7 0.1q0-0.3 0-0.5c-0.1-1.5-0.2-1.7-1.7-1.7-0.9 0-1.8 0.2-3 0.3 0.8-1.5 1.3-3 2.2-4.3 0.7-1.1 3.7-0.8 4.5 0.3 0.6 0.7 1.4 1.3 2.1 1.9 0.6 0.5 1.2 0.9 1.7 1.5 0.3 0.4 1 1 0.2 1.6 0 0.1 0 0.3 0.1 0.4 1 3 0.6 6 0.1 9-0.1 0.5-0.2 1-0.5 1.5-0.1-0.5-0.2-0.9-0.4-1.4-0.6-1.7-1-3.6-1.9-5.2-0.9-1.5-0.2-3.8 1.5-4.5-0.6-0.1-1-0.2-1.4-0.2-0.3 0-0.6 0.2-0.7 0.5-0.3 0.5-0.6 1.1-0.7 1.7-0.1 0.6 0 1.2 0.1 1.9-0.6-0.3-1.2-0.6-1.8-1-0.2-0.1-0.2-0.6-0.1-0.8 0-0.4 0.2-0.7 0.4-1.1z"/>
			</g>
			<g id="Layer">
				<path id="Layer" class="s0" d="m78 109.3c1.1 0.3 1.1 0.4 1.9 3q1.6 0 3.3 0c3 0 3 0 3.3 2.9q0.2 1.6 0.5 3.2c1.6-0.3 2.2 0.2 2.3 1.9-0.7-0.2-1.3-0.3-2-0.5-1.2-0.4-2.3 0.4-2.4 1.6q-0.1 1.5-0.1 2.9c-0.1 0.1-0.1 0.2-0.1 0.3-0.6 0-1.1 0-1.9 0q0.2-1.1 0.3-2.3c0.1-1.7 0.3-3.4 0.3-5.2 0-0.5-0.3-1-0.5-1.5q-0.2 0.1-0.3 0.1c0 0.5 0.1 1 0.2 1.7-0.4-0.2-0.6-0.3-0.9-0.4q-0.8-0.3-1.7-0.5c-0.7-0.2-1.5-0.3-2.1-0.5-1.7-0.8-2.3-1.8-2-3.6 0.1-0.3 0.4-0.7 0.6-0.7 1-0.1 1.2-0.7 1.2-1.4 0-0.3 0-0.6 0.1-1z"/>
			</g>
			<g id="Layer">
				<path id="Layer" class="s0" d="m55.1 50.2c0.1 0.3 0.3 0.6 0.3 0.9 0.5 1.5-0.5 2.6-2 2.3-1.4-0.3-2.3-1.2-2.9-2.5 0.2-0.1 0.5-0.2 0.8-0.2-0.2-0.1-0.2-0.2-0.3-0.2-1.7 0-2.4-1-2.7-2.6-0.4-1.7-1.2-3.2-2.5-4.4 0-0.1-0.1-0.2-0.1-0.2q0-0.2 0.1-0.2c1 0.6 2.1 1.1 3 1.8 1 0.9 2 1.5 3.4 1.7 0.6 0 1.3 0.2 1.9 0.6 0.9 0.5 1.8 0.7 2.9 0.8 1.2 0.1 2.5 0.2 3.3 1.4 0.8 1.1 0.6 3.4-0.5 4.2-1 0.8-2.4 0.4-3.1-0.8-0.2-0.5-0.3-1.1-0.6-1.6-0.2-0.4-0.5-0.8-0.7-1.2q-0.2 0.1-0.3 0.2z"/>
			</g>
			<g id="Layer">
				<path id="Layer" class="s0" d="m84.2 26.3c-1.1-0.1-2-0.2-2.9-0.2-1.3 0-2.6 0.2-3.8 0.1-0.6 0-1.2-0.1-1.6-0.4-3.8-2.9-8.1-4.8-12.7-6.1-1.4-0.4-2.7-0.9-4.1-1.4 4.9-2 21 3.1 25.1 8z"/>
			</g>
			<g id="Layer">
				<path id="Layer" class="s0" d="m94.5 51.4c0-0.7 0.1-1.1 0-1.5-0.1-2.4 2.1-4 4.4-3.1 1.5 0.5 3 0.8 4.5 1.2 0.4 0.2 0.9 0.3 1.5 0.4-0.2 0.2-0.4 0.4-0.6 0.6 0.1 0.2 0.3 0.4 0.4 0.7-0.4 0-0.8 0-1.2 0 0.1 0.3 0.2 0.5 0.4 1-1.9-0.6-3.8-0.5-5.5 0.3q1.3-0.2 2.7-0.4c-1.3 1-2.9 1.5-4.5 1.6-0.7 0-1.3 0-2 0.1-1.4 0.1-2.6 0-3.9-1-0.8-0.7-2-0.9-3-1.4-0.3-0.1-0.6-0.3-0.8-0.5-0.3-0.2-0.6-0.5-0.9-0.8 0.1-0.1 0.2-0.2 0.5-0.4-0.6-0.2-1.1-0.4-1.8-0.6 0.3-0.4 0.6-0.7 0.9-1.1-0.5-0.2-1-0.5-1.6-0.7 0.2-0.3 0.4-0.5 0.6-0.8q-0.8-0.5-1.6-0.9 0.1-0.1 0.2-0.1-0.2-0.6-0.4-1.2c1.9 0.3 3.7 1 4.7 2.9q1.7 3.2 4.8 4.9c0.6 0.4 1.4 0.5 2.2 0.8z"/>
			</g>
			<g id="Layer">
				<path id="Layer" class="s0" d="m48.1 51.6c-0.6-1.1-1.2-2.2-1.8-3.2q-0.1 0-0.2 0.1 0.1 0.9 0.3 1.9 0.1-0.1 0.2-0.1c0.2 0.2 0.6 0.4 0.6 0.7 0.3 2.1 0.5 4.3 0.7 6.6-0.9-0.1-1.6-0.1-2.3-0.3-0.7-0.4-1.3-0.9-1.9-1.5-0.3-0.3-0.3-0.9-0.4-1.5-0.1-1.6 0-3.3-0.9-4.8-0.4-0.7-0.8-1.3-1.3-2.1 1.8-1.2 1.3-3.1 1.4-5 1.1 0.1 2.1 0.3 2.8 1.1 1.8 2.1 3 4.4 3 7.2q0 0.3-0.1 0.6c0 0 0 0.1-0.1 0.3z"/>
			</g>
			<g id="Layer">
				<path id="Layer" class="s0" d="m72.2 43.2q-0.5 0.3-0.9 0.7c-0.7 0.6-1.4 1-1.9 1.6-0.5 0.7-1 0.8-1.7 0.6q-1.1-0.3-2.2-0.5-0.5-0.1-1.1 0.1c1.3 0.9 2.7 1.2 4.2 1.3 0.2 0 0.4-0.3 0.6-0.6 0.4-0.5 0.8-1.1 1.3-1.8-0.1 1.6-0.2 2.9-0.3 4.1-2.6 0.5-5.2 0.9-8 1.4 0-0.3-0.1-0.6 0-1 0.4-2.5 1-5 2.4-7.2 0.9-1.4 2.2-2.2 3.6-2.9 0.2-0.1 0.7 0.1 0.8 0.3 0.9 1 1.7 2 2.5 3.1 0.2 0.2 0.5 0.5 0.7 0.8 0 0 0 0 0 0z"/>
			</g>
			<g id="Layer">
				<path id="Layer" class="s0" d="m82 51.9c-0.1 0.1-0.4 0.4-0.5 0.3-0.4-0.1-0.8-0.3-1.4-0.5-0.2 0.7-0.4 1.3-0.7 2.2 0.5-0.2 0.7-0.4 1-0.5q-0.1-0.4-0.2-0.8c3.7-0.5 5.8 4.7 5.1 7.6-1.8-1.8-3.7-3.7-5.6-5.6q-0.1 0-0.2 0.1 0.3 0.7 0.6 1.4c-1.1 0.1-1.6-0.5-2.2-1.3-0.5-0.8-0.7-1.8-1.1-2.6-0.2-0.2-0.8-0.3-1-0.3-0.5 0.9-0.9 1.7-1.4 2.5q-0.1 0.1-0.3 0.1c-0.5-0.8-1-1.5-1.4-2.4-0.1-0.3 0.2-1 0.5-1.3 0.9-0.8 1.8-1.4 2.8-2 0.2-0.1 0.6 0 0.9 0.2 0.7 0.4 1.4 0.8 2.1 1.2q1.5 0.8 3 1.6 0 0.1 0 0.1z"/>
			</g>
			<g id="Layer">
				<path id="Layer" class="s0" d="m91.4 57.8c0.6 0.9 1.1 1.8 1.6 2.6q0.1 0 0.2-0.1c-0.1-1.1-0.7-2.2-0.2-3.5 0.3 0.3 0.5 0.6 0.8 1-0.1-1.6-0.8-2.8-1.8-3.8 1-0.3 1.9 0 2.2 1.1 0.4 1.3 0.6 2.6 0.9 4-0.4-0.1-0.6-0.2-1-0.4 0.8 1.5 1.9 2.4 3.4 2.9 0.5 0.1 1.1 0.5 1.3 1 1 2.3 1.9 4.8 2.8 7.2 0.1 0.1 0.1 0.3 0.2 0.6-0.9-0.1-1.4-0.7-1.8-1.4-0.7-0.9-1.2-2-1.9-2.9-0.7-0.8-1.5-1.6-2.5-2.1-1.9-1-3.6-2.2-4-4.5-0.1-0.5-0.1-1.1-0.2-1.7z"/>
			</g>
			<g id="Layer">
				<path id="Layer" class="s0" d="m51.8 136.4c-1.6-2.7-2.5-5.6-2.3-8.7 0.2-2.4 1.1-4.7 2.4-6.8q0.1 0 0.3 0.1c0.2 1.7 0.5 3.4 0.5 5.1 0.1 1.8 0.2 3.6 0.9 5.3 0.2 0.4 0.2 1 0 1.4-0.5 1.2-1 2.4-1.5 3.6q-0.2 0-0.3 0z"/>
			</g>
			<g id="Layer">
				<path id="Layer" class="s0" d="m142.7 104.6c-1.2-0.6-2.3-0.2-2.5 1.1-0.2 0.9-0.3 1.9-0.4 2.9-0.5-2.8-0.9-5.5-1.4-8.2 1.2 0.7 2.5 1.4 3.9 2.2-0.4 0.2-0.6 0.3-0.8 0.4q0 0.1 0 0.2c0.5 0 1 0 1.4 0 0.5 0 0.8 0.2 0.6 0.7-0.5 1.4 0 2.7 0.1 4 0.1 1 0 2.1-0.2 3.1-0.3 1.5-0.8 2.9-1.2 4.4q-0.2 0-0.3 0c-0.1-0.6-0.2-1.1-0.3-1.7-0.1-1.9-0.4-3.8-1.2-5.6-0.4-1 0.3-2.4 1.4-3 0.3-0.2 0.6-0.3 0.9-0.5z"/>
			</g>
			<g id="Layer">
				<path id="Layer" class="s0" d="m72.2 43.2q-0.9-1.6-1.8-3.2c-0.3-0.5-0.6-1-1.1-1.8 2.5-0.3 4.7-0.7 7-1 0.7-0.1 1.2 0.3 1.6 1q0.2 0.3 0.3 0.7c0.7 2 0.7 2-1.3 2.6-0.9 0.3-1.7 0.7-2.6 1-0.7 0.2-1.4 0.4-2.1 0.7 0 0 0 0 0 0z"/>
			</g>
			<g id="Layer">
				<path id="Layer" class="s0" d="m42.5 102.6c5.1-4.5 10.9-7 17.9-6.9-0.4 0.4-0.7 0.7-1 1-0.9 0.8-1.7 1.7-2.6 2.4-0.3 0.2-0.8 0.3-1.1 0.3-3.2-0.3-6.2 0.2-9.2 1.4-1 0.4-2 1-3 1.4q-0.5 0.2-1 0.4z"/>
			</g>
			<g id="Layer">
				<path id="Layer" class="s0" d="m66.8 92.5c-1.9 1-3.5 2.1-5.6 2.3-0.2 0-0.4 0.1-0.5 0-2.5-1.5-5.3-1.2-8.1-1.3-0.9 0-1.8 0-2.8 0 2.7-2 12.7-3.3 17-1z"/>
			</g>
			<g id="Layer">
				<path id="Layer" class="s0" d="m55.2 23.1q1.6-0.2 3.2-0.4c3.8-0.5 7.7-0.5 11.5 0.5 1.8 0.4 3.7 1.2 5.2 2.9-1.8 0.1-3.4 0.1-4.9 0.2-0.1 0-0.2-0.1-0.3-0.1-2.8-1.9-6-2.1-9.1-2.3-1.9-0.1-3.8-0.3-5.6-0.5q0-0.1 0-0.3z"/>
			</g>
			<g id="Layer">
				<path id="Layer" class="s0" d="m90.1 132.7c-0.3-0.8-0.5-1.5-0.7-2.1-0.5-1.2-0.9-2.5-1.5-3.6-0.4-0.7-1.1-1.3-1.8-1.7-0.5-0.4-0.7-0.8-0.5-1.3 0.4-1 0.6-2 1.1-2.8 0.7-1.2 1.9-1.2 2.7-0.1 0.4 0.6 0.7 1.2 0.8 1.9 0.5 3.1 0.3 6.2 0.1 9.3 0 0.1-0.1 0.1-0.2 0.4z"/>
			</g>
			<g id="Layer">
				<path id="Layer" class="s0" d="m137.6 99.9c-0.6-0.1-1.3-0.1-2-0.3-1.2-0.3-1.5-0.1-1.5 1.2 0 0.6 0.1 1.2 0.1 1.9-0.9-0.2-1.6-0.4-1.8-1.4 0-0.3-0.3-0.6-0.6-0.8-0.9-0.6-1.8-1.3-2.8-1.8-0.4-0.2-0.9-0.2-1.3-0.2-0.4-0.1-0.7-0.1-1-0.2 0.2-1.1 0.8-1.9 1.7-2.3 1.9-1 2.1-0.9 3.6 0.6 0.8 0.8 1.7 1.3 2.9 1.2 1.3-0.1 2 1 2.8 1.7q0 0.2-0.1 0.4z"/>
			</g>
			<g id="Layer">
				<path id="Layer" class="s0" d="m52.4 26.9c0.5-0.1 1-0.3 1.5-0.4 2.4-0.4 4.8-0.9 7.3-1.1 2.6-0.2 5.2 0.2 7.6 1.4 0.2 0.1 0.5 0.3 0.9 0.6-0.7 0.1-1.1 0.2-1.6 0.3-0.4 0.1-1 0.1-1.3 0.4-0.9 0.9-1.8 0.6-2.8 0.3-3.2-0.9-6.6-0.8-9.9-1.1q-0.8-0.1-1.7-0.1 0-0.2 0-0.3z"/>
			</g>
			<g id="Layer">
				<path id="Layer" class="s0" d="m77.1 27c5.4-0.6 10 0.8 12.9 5 0 0-0.1 0.1-0.1 0.1-1.5-0.8-3.2-0.9-4.8-1-2.7-0.2-4.9-1.3-6.9-2.9-0.4-0.3-0.7-0.7-1.1-1.2z"/>
			</g>
			<g id="Layer">
				<path id="Layer" class="s0" d="m85.7 33.4c0.7 0.3 1.4 0.6 2.1 1.1 1.5 1 2.4 2.5 2.9 4.1 0.6 2.1 2 3.5 3.6 4.8q1.5 1.2 2.8 2.7c-2-0.5-4-0.9-5.6-2.2-1.2-1-2-2.3-2.7-3.7-0.2-0.5-0.2-1-0.3-1.5-0.4-2-1.4-3.7-3-5.1q0.1-0.1 0.2-0.2z"/>
			</g>
			<g id="Layer">
				<path id="Layer" class="s0" d="m60.5 88.2c5-0.9 9.6 0.2 14 2.9q-3.2 0.5-6.4 0.9c-0.2 0-0.5 0-0.6-0.2-1.6-1.4-3.5-2.3-5.6-2.8-0.5-0.1-1-0.3-1.5-0.5q0.1-0.1 0.1-0.3z"/>
			</g>
			<g id="Layer">
				<path id="Layer" class="s0" d="m54.9 100.7c-0.8 1.2-1.7 2.4-2.6 3.5-0.2 0.2-0.6 0.2-1 0.2q-3 0-5.9 1.1c-0.8 0.2-1.7 0.3-2.5 0.4 3.5-2.7 6.9-5.7 11.8-5.4q0.1 0.1 0.2 0.2z"/>
			</g>
			<g id="Layer">
				<path id="Layer" class="s0" d="m137.5 112.7c-0.1-0.6-0.2-1.2-0.3-1.8-0.3-2.8-0.8-5.6-2.3-8.1-0.1-0.2-0.2-0.5-0.2-0.8-0.2-1 0.1-1.7 0.9-1.9 0.7-0.3 1.8 0.2 2.1 1 0.4 1.4 0.9 2.8 0.9 4.2-0.1 2.4-0.5 4.8-0.9 7.3 0 0 0 0-0.2 0.1z"/>
			</g>
			<g id="Layer">
				<path id="Layer" class="s0" d="m86.9 38.2c1 0.3 1.4 1.3 1.6 2.1 0.9 2.8 2.7 4.8 5.1 6.2 0.7 0.3 0.8 0.7 0.7 1.4-0.2 0.8-0.2 1.6-0.4 2.6-0.5-0.3-1-0.5-1.3-0.7-2.2-1.7-3.8-3.7-4.3-6.5-0.3-1.7-0.9-3.4-1.4-5.1z"/>
			</g>
			<g id="Layer">
				<path id="Layer" class="s0" d="m69 86.8c4.6-0.2 12.1 2.5 13.8 5.1-1.9-0.1-3.6-0.2-5.4-0.4-0.4 0-0.9-0.2-1.3-0.5-1.9-1.7-4.1-2.9-6.4-3.9-0.2 0-0.3-0.1-0.7-0.3z"/>
			</g>
			<g id="Layer">
				<path id="Layer" class="s0" d="m55.4 77.2q0.3-1.2 0.5-2.4c0.5-1.9 0.8-3.8 0.4-5.8-0.1-0.6-0.3-1.2-0.5-1.8-0.3-0.6-0.3-1.1 0.2-1.6 0.5-0.4 0.9-0.8 1.5-1.4 0.4 0.8 0.9 1.4 1 2.1 0.6 3.5-0.2 6.8-1.8 9.9-0.2 0.4-0.7 0.7-1 1.1q-0.1 0-0.3-0.1z"/>
			</g>
			<g id="Layer">
				<path id="Layer" class="s0" d="m61.7 64.2c1.1 0.8 1.3 1.9 1.4 3 0.4 3-0.4 5.9-1.7 8.6-0.3 0.6-0.8 1-1.1 1.5q-0.2-0.1-0.3-0.1c0.1-0.8 0.3-1.6 0.5-2.4 0.5-2.1 0.8-4.1 0.3-6.2-0.2-0.7-0.4-1.3-0.7-1.9-0.2-0.5-0.1-0.8 0.3-1.2 0.5-0.3 0.9-0.8 1.3-1.3z"/>
			</g>
			<g id="Layer">
				<path id="Layer" class="s0" d="m42.7 111.7c2-3.1 4.8-5.4 8.9-6q-1 1.9-1.9 3.8c-0.1 0.2-0.3 0.2-0.4 0.2-2.3 0.7-4.5 1.4-6.6 2z"/>
			</g>
			<g id="Layer">
				<path id="Layer" class="s0" d="m48.8 78.1c0.2-0.9 0.2-1.7 0.5-2.5 0.8-2.2 0.8-4.3 0-6.4-0.3-1-0.1-1.6 0.7-2.2 0.2-0.2 0.5-0.4 0.7-0.6 0.9 0.5 1.1 1.4 1.2 2.2 0.3 3.3-0.4 6.3-2.3 9-0.1 0.2-0.4 0.4-0.6 0.6q-0.1-0.1-0.2-0.1z"/>
			</g>
			<g id="Layer">
				<path id="Layer" class="s0" d="m84.6 51.2c0-0.1 0-0.4 0-0.7 0.9 0.1 1.5 0.6 2 1.2 1.3 1.5 2.2 5.9 1.6 8.1-0.3-0.4-0.6-0.8-0.7-1.2q-1.1-3-3.7-4.9c-0.8-0.6-0.2-1.2-0.1-1.8 0.1-0.2 0.5-0.4 0.9-0.7z"/>
			</g>
			<g id="Layer">
				<path id="Layer" class="s0" d="m61.3 32.6q-0.9 0.8-1.7 1.4c-0.2 0.1-0.4 0.2-0.6 0.2q-5.1-0.5-10.3-1c0 0-0.1-0.1-0.1-0.1 0.8-1.1 10.1-1.6 12.7-0.5z"/>
			</g>
			<g id="Layer">
				<path id="Layer" class="s0" d="m50.7 30.3c3.6-0.5 7.3-0.9 10.9-1.3 0.9-0.1 1.8 0.1 3 0.2-1.2 1.3-1.9 2.4-3.8 2.1-2.5-0.4-5.1-0.3-7.6-0.5-0.8 0-1.7-0.2-2.5-0.4q0 0 0-0.1z"/>
			</g>
			<g id="Layer">
				<path id="Layer" class="s0" d="m82 51.9q0 0 0-0.1c-1.1-0.8-2.1-1.7-3.3-2.6 0.3-0.5 0.6-1.1 1-1.7 0.1-0.2 0.4-0.2 0.6-0.2 0.2 0 0.4 0.2 0.5 0.2 1.8 0.7 3.5 1.4 5.2 2.1 0.4 0.1 0.7 0.5 1.1 0.8-1.1 0-2.1-0.2-3-0.1-1.3 0.2-0.8 1.5-1.2 2.2q-0.4-0.3-0.9-0.6z"/>
			</g>
			<g id="Layer">
				<path id="Layer" class="s0" d="m49.1 36.7c3-1.3 6-1.9 9.5-1.3-0.4 0.7-0.7 1.3-1.1 1.9-0.1 0.1-0.3 0.2-0.5 0.2q-4-0.2-7.9-0.5 0-0.2 0-0.3z"/>
			</g>
			<g id="Layer">
				<path id="Layer" class="s0" d="m59.4 66.7c-0.9-0.8-1.1-1.5-0.6-2.3 0.6-0.8 0.4-1.5-0.4-2-0.8-0.6-1.6-1.3-2.3-2q0.1-0.1 0.2-0.3c0.5-0.3 1-0.5 1.6-0.8 0.3 0.4 0.7 0.9 0.9 1.3 0.7 1.1 1.5 1.8 2.8 2 0.4 0 0.8 0.4 1.2 0.9-1.9 0.2-3.1 1.1-3.4 3.2z"/>
			</g>
			<g id="Layer">
				<path id="Layer" class="s0" d="m79 87.8c3.7 1.1 7.2 2.6 10.2 4.9q-0.1 0.1-0.1 0.2-2-0.2-4-0.5c-0.2-0.1-0.4-0.2-0.5-0.3-1.6-1.7-3.5-2.9-5.5-4 0 0 0-0.1-0.1-0.3z"/>
			</g>
			<g id="Layer">
				<path id="Layer" class="s0" d="m42.3 115.8c1.6-2.7 4-4 6.8-5.1-0.5 1.1-0.9 2.1-1.3 3.1-0.1 0.1-0.2 0.3-0.3 0.3-1.7 0.1-3.2 0.9-4.6 1.6-0.1 0-0.3 0-0.6 0.1z"/>
			</g>
			<g id="Layer">
				<path id="Layer" class="s0" d="m48.9 39.6c2.5-1 5-1.7 7.9-1.1-0.1 0.5-0.2 1.1-0.3 1.7 0 0.1-0.3 0.3-0.5 0.3q-3.5-0.4-6.9-0.7c-0.1 0-0.1-0.1-0.2-0.2z"/>
			</g>
			<g id="Layer">
				<path id="Layer" class="s0" d="m98.7 106c-2.6 0-4.8-1.2-7.1-2.5q0.5-1.2 1-2.5 0.1 0 0.2-0.1c1 2.9 3.4 4 5.9 5.1z"/>
			</g>
			<g id="Layer">
				<path id="Layer" class="s0" d="m88.1 52.7c1.3 0.2 1.8 0.5 1.8 1.7 0 2.1-0.1 4.2-0.2 6.3 0 0.1-0.1 0.2-0.2 0.3-0.4-2.8-0.9-5.5-1.4-8.3z"/>
			</g>
			<g id="Layer">
				<path id="Layer" class="s0" d="m93.7 94c-2.9 0-4.9-1.4-5.8-4.1 2.2 1 4.4 1.8 5.8 4.1z"/>
			</g>
			<g id="Layer">
				<path id="Layer" class="s0" d="m76.5 69.2c-2.4 0.1-5.3-1.5-6.1-3.4 2.5 0.4 4.4 1.5 6.1 3.4z"/>
			</g>
			<g id="Layer">
				<path id="Layer" class="s0" d="m55.7 41.2c0.1 0.8-0.1 1.3-1 1.4-1.2 0.1-2.5 0.3-3.7 0.4 1.3-1.3 2.8-2.1 4.7-1.8z"/>
			</g>
			<g id="Layer">
				<path id="Layer" class="s0" d="m47.7 114.9c-0.2 1-0.3 1.8-0.5 2.6 0 0.2-0.2 0.3-0.3 0.4-0.7 0.4-1.5 0.8-2.2 1.2 0.3-1.7 1.3-3.1 3-4.2z"/>
			</g>
			<g id="Layer">
				<path id="Layer" class="s0" d="m45.3 122.5c0.3-1.3 0.5-2.6 1.8-3.4 0.4 1.7-0.3 2.7-1.8 3.4z"/>
			</g>
			<g id="Layer">
				<path id="Layer" class="s0" d="m89.8 52.9c-0.9-0.4-1.6-0.7-2.3-1-0.3-0.1-0.3-0.6-0.4-0.9 0.3 0 0.5-0.2 0.8-0.2 0.9 0.1 1.6 0.8 1.9 2.1z"/>
			</g>
			<g id="Layer">
				<path id="Layer" class="s0" d="m114.7 61q0 0 0.1-0.1 0.6-0.1 1.3-0.3 0.1 0.2 0.2 0.3-0.9 1.3-1.7 2.6-0.2-0.1-0.4-0.2 0.2-1.2 0.5-2.3z"/>
			</g>
			<g id="Layer">
				<path id="Layer" class="s0" d="m117.7 60.9q-0.9 1.3-1.9 2.7-0.1-0.1-0.3-0.1c0.3-1 0.6-1.9 1-2.8 0.1-0.1 0.7-0.1 1-0.1q0.1 0.1 0.2 0.3z"/>
			</g>
			<g id="Layer">
				<path id="Layer" class="s0" d="m54.9 43.4c-0.2 1.6-0.2 1.6-1.5 1.5q-0.6 0-1.2 0 0-0.1-0.1-0.2c0.9-0.4 1.8-0.8 2.8-1.3z"/>
			</g>
			<g id="Layer">
				<path id="Layer" class="s0" d="m107.6 57.1c1.2 0.5 1.3 0.6 0.8 1.5q-0.4 0.6-0.9 1.3-0.1-0.1-0.2-0.1 0.1-1.3 0.3-2.7z"/>
			</g>
			<g id="Layer">
				<path id="Layer" class="s0" d="m106.9 55.7c-0.7 0.5-1.2 1-1.7 1.4q-0.1-0.1-0.3-0.2c0.2-0.7 0.3-1.4 0.6-2.3 0.5 0.4 0.8 0.6 1.4 1.1z"/>
			</g>
			<g id="Layer">
				<path id="Layer" class="s0" d="m106.1 58.1c0.1-0.7 0.2-1.4 0.4-2.3 0.5 0.4 0.8 0.6 1.1 0.8-0.4 0.6-0.8 1.1-1.2 1.6q-0.2-0.1-0.3-0.1z"/>
			</g>
			<g id="Layer">
				<path id="Layer" class="s0" d="m110.2 58.8c-0.6 0.7-1 1.2-1.4 1.8q-0.1-0.1-0.2-0.1c0.1-0.7 0.3-1.5 0.5-2.3 0.5 0.2 0.8 0.4 1.1 0.6z"/>
			</g>
			<g id="Layer">
				<path id="Layer" class="s0" d="m88.4 117.1c-1.5 0-1.6-0.2-1.1-2 0.4 0.7 0.8 1.3 1.1 2z"/>
			</g>
			<g id="Layer">
				<path id="Layer" class="s0" d="m166.2 154.6q0.1-0.3 0.1-0.5 0 0.2 0.1 0.5-0.1 0-0.2 0z"/>
			</g>
			<g id="Layer">
				<path id="Layer" class="s0" d="m190.3-65.5q-0.1-0.4-0.2-0.8 0.1 0 0.2 0 0.1 0.4 0.2 0.7-0.1 0.1-0.2 0.1z"/>
			</g>
			<g id="Layer">
				<path id="Layer" class="s0" d="m165.8 120.3q0-0.1 0-0.1 0.1 0.1 0.1 0.1c0 0 0 0.1 0 0.1q-0.1-0.1-0.1-0.1z"/>
			</g>
			<g id="Layer">
				<path id="Layer" fill-rule="evenodd" class="s0" d="m29.7 169q0 1.2-0.7 2.1-1 0.9-3.2 0.9-0.2 0-0.5 0-0.4 0-0.5 0-2.6 0-3.1-0.1-0.2 0-0.2-0.2 0-0.7 0.1-2.2 0.1-1.5 0.1-2.3 0-0.8-0.1-3 0-0.6 0-1.7v-0.1q-0.1-0.1 0.2-0.2 0.2 0 1.6 0 2.2 0 2.6 0 1.7 0.1 2.5 0.6 1 0.6 1 2.2 0 0.4-0.2 0.9-0.2 0.3-0.5 0.6-0.2 0.3-0.2 0.3 0 0 0.1 0.1 0.5 0.3 0.8 0.9 0.2 0.5 0.2 1.2zm-2.9-3.9q0-0.6-0.6-0.8-0.4-0.1-1.1-0.1-0.8 0-0.8 0.1 0 0.1 0 0.4 0 0.2 0 0.4 0 0.7 0.1 0.7 0.1 0.1 0.9 0.1 1.5 0 1.5-0.8zm0.2 3.8q0-0.6-0.5-0.8-0.4-0.2-1.1-0.2-0.9 0-1 0.1-0.1 0.1-0.1 0.9 0 0.8 0.1 0.9 0.1 0 1 0 0.8 0 1.1-0.1 0.5-0.2 0.5-0.8z"/>
			</g>
			<g id="Layer">
				<path id="Layer" class="s0" d="m37 172.1q-0.6 0-1.6-0.1-1.2 0-1.5 0h-2.1q-0.3 0-0.9-0.1-0.2 0-0.2-0.2 0-0.7 0.1-2.2 0-1.5 0-2.3 0-0.8-0.1-2.4 0-1.6 0-2.4 0-0.2 0.2-0.2 0.2 0 0.6 0.1 0.4 0 0.6 0 0.2 0 0.7 0 0.4-0.1 0.7-0.1 0.1 0 0.1 0.2v0.1q-0.1 1.3-0.2 3.9v1.8q0 0.9 0 1.3 0 0.1 0 0.2 0 0 0.1 0.1 0 0 0.2 0 0.6 0 1.8-0.1 1.3-0.1 1.9-0.1 0.2 0 0.2 0.2 0 1.2-0.2 2 0 0.2-0.1 0.2-0.1 0.1-0.3 0.1z"/>
			</g>
			<g id="Layer">
				<path id="Layer" fill-rule="evenodd" class="s0" d="m47.5 171.8q0 0.1-0.2 0.1-0.2 0.1-1.3 0.1-0.9 0-1.2-0.1-0.3 0-0.3-0.3-0.3-1-0.4-1-0.1-0.1-1.8-0.1-1.2 0-1.3 0.1-0.1 0.1-0.3 0.7-0.1 0.6-0.3 0.6-0.2 0.1-1.6 0.1-1 0-1-0.2 0-0.2 1.5-4.4 1.7-4.6 1.9-5.1 0.1-0.2 0.2-0.2 0.2 0 0.6 0 0.3 0 0.5 0 0.2 0 0.6 0 0.4 0 0.5 0 0.2 0 0.3 0.2 0.3 0.7 2 5 1.6 4.3 1.6 4.5zm-4.9-6.3q-0.1 0.3-0.5 1.3-0.4 1.1-0.4 1.3 0 0.1 0.5 0.1 0.2 0 0.7 0 0.4 0 0.5-0.1 0 0 0-0.1 0-0.2-0.3-1.3-0.4-1-0.5-1.2z"/>
			</g>
			<g id="Layer">
				<path id="Layer" class="s0" d="m56.3 170.4q0 0.1-0.1 0.3-1.3 1.5-3.4 1.5-2.2 0-3.5-1.5-1.3-1.4-1.3-3.6 0-2.1 1.2-3.6 1.4-1.5 3.4-1.5 2.3 0 3.5 1.4 0.2 0.1 0.2 0.2 0 0.2-0.5 1-0.5 0.9-0.6 1-0.1 0-0.1 0-0.1 0-0.4-0.3-0.4-0.3-0.7-0.5-0.6-0.2-1.1-0.2-1.1 0-1.7 0.7-0.5 0.7-0.5 1.8 0 1 0.5 1.7 0.6 0.8 1.7 0.8 0.6 0 1.1-0.3 0.3-0.1 0.7-0.5 0.3-0.2 0.4-0.2 0 0 0.1 0.1 0.1 0.1 0.6 0.8 0.5 0.8 0.5 0.9z"/>
			</g>
			<g id="Layer">
				<path id="Layer" class="s0" d="m65.6 171.6q0 0.3-0.3 0.3-0.2 0.1-1.1 0.1-0.8 0-1.2-0.1-0.2 0-0.3 0 0-0.1-0.1-0.2-0.5-1-1-1.9-0.9-1.5-1-1.6-0.8 0.2-0.8 0.4 0 0.5 0.1 1.5 0 1.1 0 1.6 0 0.2-0.2 0.2-0.3 0.1-1.3 0.1-0.9 0-1.1-0.1-0.3 0-0.2-0.2 0-0.7 0-2.2 0.1-1.5 0.1-2.3 0-0.8-0.1-2.4 0-1.6 0-2.4 0-0.2 0.1-0.2 0.2 0 0.6 0.1 0.5 0 0.7 0 0.2 0 0.7 0 0.4-0.1 0.6-0.1 0.1 0 0.1 0.2 0 0.5 0 1.5-0.1 1-0.1 1.6 0 0.5 0.3 0.5 0.9 0 1.3-0.4 0.4-0.3 0.7-1.2 0.2-0.7 0.7-2 0.1-0.2 0.3-0.2 0.2 0 0.6 0.1 0.4 0 0.5 0 0.2 0 0.6 0 0.4-0.1 0.5-0.1 0.2 0 0.2 0.2 0 0.2-0.3 1.1-0.8 2.6-2 3.3-0.2 0.1-0.2 0.2 0 0 1.3 2.1 1.3 2.1 1.3 2.5z"/>
			</g>
			<g id="Layer">
				<path id="Layer" fill-rule="evenodd" class="s0" d="m78.9 167q0 2.1-1.3 3.6-1.1 1.3-3.2 1.4-0.4 0-2.2 0-0.4 0-1 0-0.7-0.1-1.1-0.1-0.2 0-0.2-0.1 0-0.8 0.1-2.3 0-1.5 0-2.3 0-0.8 0-2.4-0.1-1.6-0.1-2.4 0-0.1 0.2-0.1 0.5-0.1 1.6-0.1 2.2 0 2.8 0.1 1.6 0.1 2.6 0.8 0.8 0.6 1.4 1.8 0.4 1 0.4 2.1zm-2.6 0q0-1.1-0.7-1.9-0.7-0.7-1.9-0.7-1 0-1 0.2 0 0.4-0.1 1.3 0 0.8 0 1.2 0 0.4 0 1.2 0.1 0.8 0.1 1.2 0 0.3 1.1 0.3 1.2 0 1.8-0.8 0.7-0.7 0.7-2z"/>
			</g>
			<g id="Layer">
				<path id="Layer" fill-rule="evenodd" class="s0" d="m88.3 171.9q0 0-0.2 0-0.2 0.1-1.3 0.1-0.9 0-1.2-0.1-0.2 0-0.2 0 0 0-0.1-0.1-0.1-0.3-0.3-0.8-0.3-0.7-0.9-2.1-0.1-0.2-0.5-0.3 0.2 0-0.7 0-0.1 0-0.1 0.4 0 0.5 0 1.4 0.1 0.9 0.1 1.4 0 0.1 0 0.1-0.1 0-0.2 0.1-0.4 0-1.3 0-1 0-1.2-0.1-0.2 0-0.2-0.2 0-0.7 0.1-2.3 0.1-1.5 0.1-2.3 0-2.9-0.2-4.5v-0.1q0-0.2 0.2-0.2 0.3 0 2.1-0.1 1.3 0 2.1 0 1.6 0 2.6 0.7 1.1 0.8 1.1 2.3 0 1-0.3 1.6-0.3 0.6-1.1 1.2-0.1 0.1-0.1 0.2 0 0 0.8 1.7 0.9 1.8 0.9 2zm-3-6.2q0-0.9-0.5-1.2-0.4-0.3-1.3-0.3-0.7 0-0.7 0.2-0.1 0.3-0.1 1.4 0 0.2 0 0.5 0 0.3 0 0.4 0 0.1 0.2 0.1 0.5 0.1 0.9 0.1 1.5 0 1.5-1.2z"/>
			</g>
			<g id="Layer">
				<path id="Layer" fill-rule="evenodd" class="s0" d="m98.2 171.8q0 0.1-0.2 0.1-0.2 0.1-1.3 0.1-1 0-1.3-0.1-0.2 0-0.3-0.3-0.2-1-0.3-1-0.1-0.1-1.9-0.1-1.2 0-1.2 0.1-0.2 0.1-0.3 0.7-0.1 0.6-0.3 0.6-0.3 0.1-1.6 0.1-1.1 0-1.1-0.2 0-0.2 1.6-4.4 1.7-4.6 1.8-5.1 0.1-0.2 0.2-0.2 0.2 0 0.6 0 0.4 0 0.6 0 0.2 0 0.6 0 0.3 0 0.5 0 0.1 0 0.2 0.2 0.4 0.7 2 5 1.7 4.3 1.7 4.5zm-4.9-6.3q-0.2 0.3-0.5 1.3-0.4 1.1-0.4 1.3 0 0.1 0.4 0.1 0.2 0 0.7 0 0.5 0 0.5-0.1 0 0 0-0.1 0-0.2-0.3-1.3-0.3-1-0.4-1.2z"/>
			</g>
			<g id="Layer">
				<path id="Layer" class="s0" d="m108 171.7q0 0.2-0.2 0.2-0.1 0-0.8-0.1-0.6-0.2-0.7-0.3-1.5 0.6-2.8 0.6-2.2 0-3.5-1.4-1.4-1.4-1.4-3.6 0-2.2 1.3-3.6 1.4-1.5 3.5-1.5 1.1 0 2 0.4 1 0.4 1.6 1.2 0.1 0.2 0.1 0.3 0 0.2-0.6 1-0.6 0.7-0.8 0.7 0 0-0.3-0.2-0.4-0.4-0.7-0.6-0.5-0.2-1.2-0.2-1 0-1.6 0.7-0.6 0.7-0.6 1.8 0 1.1 0.6 1.8 0.6 0.7 1.7 0.7 0.7 0 1.6-0.4 0-0.2-0.1-1.1-0.1-0.8-0.1-1.2 0-0.1 0.1-0.2 0 0 0.1 0 0.2 0 0.6 0.1 0.4 0 0.6 0 0.2 0 0.7 0 0.4-0.1 0.6-0.1 0.2 0 0.2 0.3 0 0.3 0 1-0.1 0.6-0.1 1 0 0.9 0.2 2.6z"/>
			</g>
			<g id="Layer">
				<path id="Layer" fill-rule="evenodd" class="s0" d="m118.6 167.1q0 2.2-1.4 3.6-1.4 1.5-3.6 1.5-2.1 0-3.5-1.5-1.4-1.5-1.4-3.6 0-2.2 1.4-3.6 1.4-1.5 3.5-1.5 2.2 0 3.6 1.5 1.4 1.5 1.4 3.6zm-2.7 0q0-1.1-0.6-1.8-0.6-0.7-1.7-0.7-1 0-1.6 0.7-0.7 0.8-0.7 1.8 0 1.1 0.6 1.8 0.7 0.7 1.7 0.7 1 0 1.7-0.8 0.6-0.7 0.6-1.7z"/>
			</g>
			<g id="Layer">
				<path id="Layer" class="s0" d="m128.8 162.4q0 0.8 0 2.4-0.1 1.6-0.1 2.4v4.6q0 0.1-0.2 0.1-0.1 0-0.5 0.1-0.3 0-0.5 0-0.2 0-0.5-0.1-0.4 0-0.6 0-0.1 0-0.3-0.2-0.5-0.7-2.2-3-0.5-0.6-1.5-1.9 0 0-0.1-0.1 0 0.1 0 0.2 0 0.8 0 2.4 0.1 1.6 0.1 2.4 0 0.2-0.2 0.2h-2.4q-0.2 0-0.2-0.2 0-0.7 0.1-2.2 0-1.5 0-2.3 0-0.8 0-2.4-0.1-1.6-0.1-2.3 0-0.2 0.3-0.2 0.4 0 1-0.1 0.1 0 0.5 0 0.4-0.1 0.6-0.1 0 0 0.2 0.2l2.6 3.6q0.3 0.4 1 1.4 0.2 0.2 0.3 0.2 0.1 0 0.1-0.6 0-0.7-0.1-2.1 0-1.5 0-2.2 0-0.3 0.1-0.3 0.4 0 1.3 0 0.8-0.1 1.2-0.1 0.1 0 0.1 0.2z"/>
			</g>
			<g id="Layer">
				<path id="Layer" class="s0" d="m140.4 164.4q0 0.1-0.1 0.1-0.3 0-2.1-0.1-0.1 1.7-0.1 2.4 0 0.8 0.1 2.5 0.1 1.6 0.1 2.4 0 0.2-0.1 0.2 0 0-0.2 0-0.4 0.1-1.2 0.1-0.9 0-1.3-0.1-0.1 0-0.1-0.2 0-0.8 0-2.4 0.1-1.7 0.1-2.5 0-0.5-0.1-2.4-1.3 0.2-2.2 0.2-0.1 0-0.1-0.1 0-0.1 0.1-0.5 0.1-0.5 0.1-0.6 0.1-0.4 0.1-0.7 0-0.5 0.2-0.5 0 0 0.1 0 1.1 0.1 3.3 0.1 0.6 0 2.3-0.1 0.9-0.1 0.9-0.1 0.1 0 0.1 0.1 0.1 0 0.1 0.1 0 0.2-0.1 0.5 0 0.4 0 0.5 0 0.2 0.1 0.5 0 0.4 0 0.6z"/>
			</g>
			<g id="Layer">
				<path id="Layer" class="s0" d="m149.1 164.7q0 0.3-0.1 0.6-0.9 1.8-2.5 3.7-0.2 0.3-0.2 0.6 0 0.3 0 1.1 0.1 0.7 0.1 1.1 0 0.1-0.1 0.1 0 0-0.2 0-0.2 0.1-1.2 0.1-1 0-1.3-0.1-0.2 0-0.2-0.2 0-0.3 0.1-1.1 0-0.7 0-1.1 0-0.2-0.1-0.5-0.9-1.2-2.4-3.6-0.2-0.3-0.2-0.4 0-0.5 0-1.3-0.1-0.8-0.1-1.2 0-0.3 0.2-0.3 0.4 0 1.3 0.1 0.8 0 1.2 0 0.2 0 0.2 0.1 0 0.4 0 1.1-0.1 0.7-0.1 1 0 0.2 0.7 1.1 0.4 0.6 0.7 1 0.3-0.4 0.8-1 0.6-0.9 0.6-1 0-0.4-0.1-1.1 0-0.7 0-1 0-0.2 0.1-0.2h0.1q0.4 0 1.3 0 0.8-0.1 1.2-0.1 0.2 0 0.2 0.3 0 0.4 0 1.1 0 0.8 0 1.1z"/>
			</g>
			<g id="Layer">
				<path id="Layer" fill-rule="evenodd" class="s0" d="m158.2 171.9q0 0-0.1 0-0.3 0.1-1.3 0.1-1 0-1.3-0.1-0.1 0-0.1 0-0.1 0-0.1-0.1-0.2-0.3-0.4-0.8-0.2-0.7-0.8-2.1-0.1-0.2-0.6-0.3 0.2 0-0.7 0-0.1 0-0.1 0.4 0 0.5 0.1 1.4 0.1 0.9 0.1 1.4 0 0.1-0.1 0.1-0.1 0-0.2 0.1-0.4 0-1.2 0-1 0-1.2-0.1-0.2 0-0.2-0.2 0-0.7 0-2.3 0.1-1.5 0.1-2.3 0-2.9-0.1-4.5v-0.1q0-0.2 0.2-0.2 0.2 0 2.1-0.1 1.3 0 2 0 1.6 0 2.6 0.7 1.1 0.8 1.1 2.3 0 1-0.2 1.6-0.3 0.6-1.1 1.2-0.2 0.1-0.2 0.2 0 0 0.9 1.7 0.8 1.8 0.8 2zm-2.9-6.2q0-0.9-0.5-1.2-0.5-0.3-1.4-0.3-0.6 0-0.7 0.2 0 0.3 0 1.4 0 0.2 0 0.5 0 0.3 0 0.4 0 0.1 0.2 0.1 0.4 0.1 0.9 0.1 1.5 0 1.5-1.2z"/>
			</g>
			<g id="Layer">
				<path id="Layer" class="s0" d="m166.1 169.8q0 0.3-0.1 1.1-0.2 0.8-0.3 1 0 0.1-0.2 0.1-0.1 0-0.2 0-0.5 0-2.9 0-0.6 0-1.6-0.1-1.1 0-1.6 0-0.2 0-0.2-0.2 0-0.7 0.1-2.3 0-1.5 0-2.3 0-0.8 0-3-0.1-0.5-0.1-1.6v-0.1q0-0.2 0.2-0.2 0.5 0 1.5 0.1 1 0 1.5 0 0.5 0 1.6 0 1-0.1 1.5-0.1 0.3 0 0.4 0.3 0 0.2 0.1 1 0.1 0.8 0.1 0.9 0 0.2-0.2 0.2 0 0-0.1 0-1.9-0.2-3.3-0.2-0.4 0-0.5 0.2 0 0.1 0 0.5 0 0.5 0.1 0.7 0.1 0.1 0.5 0.1 0 0 0.3 0 0.2 0 0.3 0 0.9 0 1.8-0.1 0 0 0.3 0 0.3 0 0.4 0 0.2 0 0.2 0.1 0-0.1-0.2 1.1 0 0.5 0 1.1 0 0.1-0.2 0.1h-0.6q-0.4-0.1-1.8-0.1h-0.8q-0.2 0-0.3 0.1 0 0.1 0 0.5 0 0.5 0.1 0.7 0.1 0.2 0.9 0.3-0.1 0 1 0 0.3 0 1-0.1 0.8-0.1 1.1-0.1 0.2 0 0.2 0.3z"/>
			</g>
			<g id="Layer">
				<path id="Layer" class="s0" d="m171.7 168.8q0 1.4-1.2 2.4-1 0.8-2.5 1.1 0 0-0.1 0-0.1 0-0.7-1-0.5-0.9-0.5-1.2 0 0 0.1-0.1 1-0.2 1.3-0.3 0.7-0.4 0.7-1.1 0-0.5-0.4-1-0.9-1-0.9-1.1-0.5-0.7-0.5-1.6 0-1.2 1.2-2.1 0.9-0.6 2.3-0.9 0.1 0 0.1 0 0.1 0 0.2 0.2 0.2 0.5 0.8 1.8 0.1 0.1 0 0.1 0 0.1-0.1 0.1 0 0-0.2 0-0.1 0-0.2 0-0.5 0-0.8 0.2-0.5 0.3-0.5 0.7 0 0.5 0.5 1.1 0.9 1.1 0.9 1.1 0.5 0.8 0.5 1.6z"/>
			</g>
	
</svg>