<svg version="1.2" xmlns="http://www.w3.org/2000/svg" viewBox="0 0 549 578" width="100" height="90">
	<title>logo1-svg</title>
	<style>
		.s0 { fill: #000000 } 
	</style>
	<path id="Layer" class="s0" d="m270.8 241.1c0.5-0.2 0.4-0.2 0.3-0.1-3.3 5-5.2 5.6-10.7 2.9-0.9-0.4-1.6-1.8-2-2.9-0.7-1.9-1.1-3.8-1.9-7.1-2.7 8.3-7.5 6.1-12 4.2-5.5-2.4-0.6-7.7-3-11.3-0.7 0.7-1.4 1.4-2 2.2-3 3.9-2.9 3.9-6.7 1.1-3.3-2.5-6.6-4.8-5.3-9.8 0.3-0.9-0.4-2-0.6-3.1-4 2.7-4.4 7.7-0.9 10.5 3.7 2.9 7.5 5.7 11.3 8.6 1 0.8 1.8 1.7 2.3 3.2q-7.3-3.4-14.6-6.8c-8-3.7-16-7.4-24-11.1-5-2.2-5.8-5.9-2.2-9.9 4.5-4.8 8.8-9.6 13.2-14.5 2.1-2.3 4.1-3.2 7.3-1.4 9.8 5.4 19.8 10.5 29.6 15.7 12.5 6.7 25.7 11.3 39.4 14.3 4 0.8 6.3 2.6 8.3 6.2 4.7 8.9 11.4 16.1 21.8 18.5 7.5 1.8 14.3-0.2 20.9-3.6 1.6-0.8 3.9-1.2 5.5-0.7 4.4 1.4 8.7 3.4 13.7 5.4-2.3 2-3.9 3.5-6.4 5.6 16.5 10.7 26 26.8 35.4 43.1-5.9-16.1-13.5-31.2-26-44 17.9 4 48.7 58.3 45.8 80.1-1.6-0.4-3.2-1-4.7-1.2-7.7-1.3-15.4-2.6-23.2-3.5-4.9-0.6-9.9-0.5-14.9-0.9-0.9 0-2.3-1.3-2.4-2.1-0.4-3.4-0.4-6.8-0.6-10.2 1.7-0.5 3.1-1 4.4-1.4q0.3-0.5 0.6-0.9c-6.8-0.5-7.5-5.6-8.6-10.2-0.9-4.4-3.8-9.2 2-13.1-3.8-0.9-7.2-1.1-10-2.6-3.1-1.7-3.6-5-1.2-9.3-4.6 2.4-7.5 1.8-10.5-1.6-2.6-3-4.9-5.6-3.6-10.5-2.7 1.6-3 5.7-6.4 3.9-3.9-2.1-8.9-3.4-6.7-10.4-2.7 3.5-5.4 3.6-8.6 2.1-2.6-1.3-6.1-1.5-5.1-5.7-5.4 2.6-9.1-1.5-13.4-3-0.9-0.3-1.3-2.3-1.9-3.4-1.2 0-3 0.5-4.5-0.1-4.6-1.6-9.2-3.2-13.5-5.5-1.6-0.9-2.3-3.5-3.7-5.7z"/>
	<path id="Layer" fill-rule="evenodd" class="s0" d="m363.3 206.9q-1.7 2.3-3.4 4.7c-1.4 1.8-2.7 3.6-4.4 5.1-1.3-5.8-0.5-8.3 2.6-10q-0.2-0.5-0.3-0.9c-0.8 0.2-1.9 0.2-2.3 0.7-1.7 2-3.2 4.2-4.7 6.4q-0.6-0.2-1.1-0.5c0.2-2.3 0.4-4.6 0.6-7.2-1.9 1.2-3.4 2.3-5.8 3.9 0.9-3.5 1.6-6 2.3-8.8 2.3 1.2 4.3 2.3 6.3 3.4q0.2-0.4 0.5-0.9c-1.6-1-4.1-1.7-4.5-3.1-0.5-1.5 0.9-3.5 1.7-5.7-0.9-0.7-2.4-1.8-3.7-3.1-1.1-1.2-2-2.8-3.1-4.5 2.1-0.7 3.6-1.2 5.4-1.7-0.4-1.3-0.7-2.3-1.1-3.6 1.1 0 1.9 0 2.8 0q0.2-0.3 0.3-0.7c-1.3-0.8-2.7-1.7-3.8-2.4-2.2 3.3-4.1 6.2-6.4 9.5 1.1 1.8 2.6 4.2 4 6.5q-0.2 0.2-0.4 0.3c-5.3-4.4-11-8.5-15.9-13.4-4.9-4.9-10.5-8.3-17.3-9.9-0.9-0.2-1.7-0.6-2.6-1.7 5.6-0.7 11.2-1.4 17.2-2.2-0.7-1.5-1.3-2.6-2-4.3 4.1 0 7.8 0 11.8 0 0-2.6 0-4.8 0-8.1-0.8 1.9-1.2 2.9-1.8 4.3-4.6-1.5-8.1-4.4-10.5-8.7-1.6-3-3.1-6.2-5.1-8.9-1.7-2.3-4.1-4.1-6.8-5.7 3.9 5.1 7.9 10 9 16.8-6.3 0.5-12.2 0.1-17.2-4.1-3.8-3.1-4-8.3 0.4-11.5-0.7-1.3-1.4-2.6-2.6-4.9 3.2 1 5.7 1.8 8.1 2.6q0.2-0.5 0.5-1c-4.4-1.8-8.8-3.6-14.1-5.8 2.8-0.8 4.8-1.4 7.2-2.1-2-1.4-3.9-2.6-6.5-4.3 2.8-0.4 4.9-0.7 7.9-1.1-1.5-1.7-2.3-3.5-3.5-3.7-1.4-0.3-3.5 0.3-4.4 1.3-2.3 2.7-4 5.8-6 8.8 0.1 0.1-0.4 0-0.4-0.3-3.8-16.7-13.7-29.9-24.8-42.1-9.8-10.9-19.9-21.4-30.4-31.5-11.2-10.8-23.1-20.8-34.8-31.3 0.8 0.3 1.7 0.5 2.6 0.9 23.9 11.7 45.2 27.1 64 45.9 13.2 13.2 25.6 27.4 33.4 44.8 1.7 3.9 4.4 1.8 7.3 1.7-0.5-2-0.9-3.8-1.5-6.6 2.5 1.3 4.4 2.2 6.7 3.3 0.6-1.1 1.2-2.3 2-3.9 1.3 1.6 2.4 3.1 4.3 5.4 0.7-1.4 1.1-2.2 1.6-3.3 1.7 1.8 3.1 3.4 4.8 5.2 0.5-1.8 0.9-3.1 1.2-4.5q0.6-0.2 1.2-0.4 4.7 9.7 9.5 19.4c0.3 0.6 0.7 1.5 1.3 1.6 3.4 1 4.3 3.9 4.9 6.8 1.1 4.8 1.9 9.6 2.6 14.4 0.2 1.3-0.5 2.7-0.9 4.4 2 0.7 5 1.2 4.3 5.3 1.8-0.1 3.5-0.2 5.3-0.3 0.1 3.2 1 5.3 4.8 5.5 1 0.1 1.9 3.4 3 5.6 0.4 0 1.3 0.2 2.2 0.1 1.9-0.2 3.3 0 3.8 2.2 0.2 0.6 1.5 1.5 2.2 1.5 0.8 0 2.2-0.8 2.4-1.5 1.4-6.2 3.2-12.5 3.8-18.8 0.7-6.4-2.3-11.4-7.8-14.9-8.3-5.3-14.9-12.2-19-21.2-1.1-2.6-2-5.6-2-8.5-0.2-4.9 0.5-9.9 1.4-15 0.9 2.9 1.7 5.7 2.7 8.9 0.9-0.9 1.7-1.6 3-2.6 0.5 3.6 0.9 6.9 1.5 10.6 0.8-1.1 1.4-1.7 2.4-3 0 2.8 0 5 0 7.7 1.5-1.1 2.5-1.8 3.7-2.6 0.4 1.6 0.8 2.8 1.1 4.2 0.6-0.5 1.1-0.8 1.8-1.4 0.8 3.6 1.5 6.9 2.3 10.1q0.6 0.3 1.2 0.6 1-1.8 1.9-3.6 0.6 0 1.2 0.1c-0.3 7.2 5.8 10.9 8.5 16.4 3.2 6.3 3.4 13 2 19.8q-1.6 8-3.7 15.9c-0.3 1.1-1.6 2-2.9 3.5 1 1.2 2.6 3.3 4.6 5 2.1 1.9 2.1 3.8 1.2 6.1-1.3 3.4-2.4 6.9-3.9 10.2-0.4 0.9-1.9 1.9-3 2-2.6 0.3-5.2-0.1-7.8 0.3-1.3 0.1-2.4 1.1-3.6 1.8q-0.2 0.2-0.5 0.3zm-9.9-11.8c4.3 1.3 7.3-0.5 8.2-4.3 1.5-6.2-2.7-13.1-9.6-14.5 2.1 2.2 3.7 4 5.3 5.8 4.9 5.5 3.5 10.8-3.9 13zm-15.4-62.6q-0.7-0.1-1.3-0.1-0.7 5.6-1.4 11.1 0.6 0.1 1.3 0.2 0.7-5.6 1.4-11.2zm4.7 23.3c-3.2-4-4.7-4.4-7-1.9 2.2 0.6 4.2 1.2 7 1.9z"/>
	<path id="Layer" class="s0" d="m191.7 335.5c26.5-4.7 51.7-4.4 76.2 4.7 1.4 0.5 2.8 1.2 4.2 1.8 2.9 1.1 4.3 3 4.9 6.3 1.9 11.2 9 19 18.6 24.3 6.5 3.6 13.5 6.3 20.3 9.4 1.4 0.6 2.8 1 4.1 1.9-9.8 0.7-19.2-0.8-28-5.4-8.8-4.7-14.7-12.6-21.1-20.1 0.5 6.5 1.2 12.9-4.6 18.2 4.9 3.6 9.4 6.9 14.5 10.6-9.2-2.2-20.9-6-25.5-14 1-0.6 2.4-1.3 3.5-2.3 5-4.9 5.1-10 0.1-14.9-2-2-4.5-3.5-6.8-5.1-0.9-0.7-1.9-1.3-3.6-2.4 3.7-0.5 6.3-0.8 8.9-1.2q0.1-0.5 0.1-1c-8.7-5.3-18.6-5.7-29.4-6.2 4.3 5.2 6.9 10.4 14.3 10.8 10.4 0.6 16 9.7 11.9 18.6-1.2 2.4-3.7 4.7-6.2 5.8-6.4 2.9-16 0-20.7-5.8q1.6-2 3.2-4-0.2-0.5-0.5-1c-1.9 0.9-4.1 1.4-5.6 2.7-3.7 3.3-8.1 3.9-12.6 3.8-1 0-2.1-1.5-2.9-2.5-1.3-1.8-2.4-3.8-3.6-5.7q-0.7 0.4-1.4 0.8c0.7 1.5 1.2 3.2 2.3 4.4 2 2.3 2.8 4.8 2.7 7.8 0 1.5 1 3.3 2.1 4.4 5.9 5.6 12.2 10.8 18.1 16.5 2.2 2 3.9 4.7 3.3 8.8-2.2-1-3.8-1.7-5.5-2.5-2.3-1.2-4.5-2.7-6.9-3.6-3.4-1.4-4.5-0.6-5.1 2.9-0.1 1.2-0.1 2.4-0.4 3.5-0.3 0.8-1.1 1.7-1.7 1.7-0.6 0-1.5-0.9-1.7-1.6-0.7-2-0.9-4.2-1.6-6.2-0.6-1.8-1.7-3.4-2.6-5.1q-0.4 0.1-0.8 0.3c0 1.3 0 2.6 0 4.4-0.9-0.4-1.5-0.5-1.9-0.8-6.8-4.9-13.6-9.9-20.3-14.9-1-0.8-2.1-1.9-2.4-3.1-2.2-9-4.5-17.9-11.4-25.1 9.3-5.4 18.3-4.2 28.1-0.1-1.5-1.8-2.4-2.7-3.9-4.3 13.1-1.7 25.1-5.9 37 0.7 2.1 1.1 3.3 1 4.4-2.1-7.2-1.5-14.2-3.9-21.3-4-9-0.2-15.2-5.1-22.8-10.1z"/>
	<path id="Layer" class="s0" d="m328.6 303.1c10.5 14.1 11.3 30.9 13.9 47.6 8.7-17.6-0.8-48.4-18.8-58.9-2.4 8.4-4.6 16.7-6.9 24.9 0.6-15.1 1.5-30.2-6.1-44.3q0.4-0.2 0.8-0.5 2.2 1.8 4.5 3.5c7.2 5.3 14.7 10.4 21.7 16.1 15.4 12.4 21.2 29 19.4 48.4-1 11-4 21.4-10.5 30.6-4.7 6.6-11.1 9.8-19.2 9.5-10.9-0.4-21.2-3.9-29.7-10-9.3-6.7-15.5-16.5-18.6-28.3 5.8 0.2 8.9 4.8 13.8 7.5-0.7-2.2-1.2-3.9-1.7-5.7 5.8 2.3 11.4 4.5 17 6.7q0.5-0.8 1.1-1.7-4-3.2-8.1-6.5 0.4-0.4 0.7-0.9c5 0 9.9 0 15.8 0-2.5-2.1-4.3-3.6-6.4-5.4 4.4-2.9 10.5-1.9 13.2-7-2.8 0.3-5.5 0.5-8.1 0.8q-0.3-0.5-0.7-1.1c6.8-7.1 10.2-15.9 12.9-25.3z"/>
	<path id="Layer" class="s0" d="m375.1 493.4c0.2-0.8 0.6-2 0.9-3.2 10.7 0.5 25.4 9.8 32 20.3 0.9-2.1 1.8-4.1 3-6.7 8 8.7 12.5 19.3 19.4 28.6 1-1.5 1.9-2.6 3.2-4.4 12.5 16.1 29.8 17.3 47.9 16.3q0.3 0.5 0.6 1c-1.8 1.6-3.4 3.5-5.4 4.7-6.3 3.9-13.4 3.9-20.4 3.7-14.3-0.3-27-5.2-38.3-13.7-12.4-9.4-25.3-18.2-39.5-24.8-17-7.9-34.9-10.8-53.4-6.2-9.9 2.5-19.3 6.5-29.1 9.4-6.3 1.9-12.9 2.9-19.4 4.3q-0.2-0.6-0.5-1.2c2.8-1.5 5.6-3 8.4-4.6 9.2-5.3 18.4-10.9 27.8-15.9 7.7-4.1 16.2-5.8 25-6 3.3-0.1 6.6-0.4 10.2-0.7-0.3-0.7-0.5-1.2-0.7-1.8-1-3-0.5-3.7 2.6-3.2 8.4 1.2 16.8 2.6 25.7 4.1z"/>
	<path id="Layer" class="s0" d="m283.4 535.4c4.4-2.3 8.6-5 13.3-6.5 12.1-4 24.2-8.5 36.7-10.8 10.5-1.9 21.6-1.8 32.3-1.1 13.7 0.8 25.1 7.9 35.8 16.1 9.2 7.1 18.2 14.5 27.7 21.2 5.5 3.8 11.9 6.4 17.8 9.6 1.3 0.7 2.4 1.7 4.3 3-17.3 3.4-33.6 3.8-50.8 2.3 3.3-2.7 6-4.9 8.8-7.1-13 0.9-25.1-0.4-37.3-5.3 3-3.3 8.3-3.4 9.1-8.3-9-2.5-18.8 0.3-28-4.1 3.7-3.1 6.7-5.7 9.7-8.2q-0.1-0.6-0.2-1.3c-4.5-1.2-8.9-2.7-13.4-3.8-13.6-3.3-26.9-1.2-40.3 1.3-7.7 1.5-15.4 2.8-23.1 4.1-0.6 0.1-1.3 0-2 0q-0.2-0.6-0.4-1.1z"/>
	<path id="Layer" class="s0" d="m200.6 100.2c-3.5-8.6-11.7-15.9-23.4-13.7-7 1.4-13.4 3.4-19.1 8.1-4.4 3.7-9.8 6.4-14.8 9.6q-0.3-0.3-0.7-0.6c1.6-1.8 3-3.7 4.7-5.4 4-3.7 8.1-7.4 12.1-11 16.9-15.4 34.4-11.9 47.4 5 3.8 4.9 6 10.9 9.3 17.3-2.9 0-4.6 0-6.3 0-6.1 0.1-12.2-0.4-18.1 0.5-15.8 2.4-27.9 10.2-33.9 25.7-3.1 8.2-6 16.4-8.9 24.7-0.3-0.1-0.7-0.1-0.7-0.2-2.7-5.7-7.4-7.2-13.3-6.3-1.6 0.3-3.5 0.4-4.9-0.3-7.1-3.2-7.7-1.5-5.3-13.8 2.1 0.5 4.2 1.2 6.4 1.5 1 0.1 2.6-0.3 3.2-1 1.9-2.6 3.6-5.3 5.2-8.1 1.4-2.3 2.5-4.8 4.2-8.1-5.4 4.1-10 7.6-14.8 11.2-0.2-0.8-0.4-1.1-0.3-1.2 4.8-7.6 9.1-15.6 14.4-22.8 3-4.1 7.6-7 11.7-10.2 2.6-2 5.8-3.2 8.4-5.2 6.6-5.1 14.6-6.2 22.2-8 0.8-0.2 2.1 0.3 2.6 1 2 2.5 3.7 5.2 5.8 8.2-25.4 5.6-42.4 19.6-47.2 46 0.6-0.8 1.5-1.6 1.9-2.5 0.9-2 1.7-4.2 2.3-6.3 3-10.6 9.6-17.9 19.2-23.2 8.8-4.8 17.7-9.1 27.9-9.7 0.6-0.1 1.1-0.3 1.7-0.5 0.4-0.2 0.8-0.5 1.1-0.7z"/>
	<path id="Layer" class="s0" d="m319.7 210.7c-4.2-0.6-4.3 2.1-4.4 5 1.2 0.1 2.3 0.1 3.2 0.5 1 0.6 2.4 1.5 2.6 2.5 0.7 3.1 2.7 3.7 5.3 3.2 2-0.3 3.9-1.1 5.9-1.3 4.5-0.4 9.4 1.3 9.5 8.2-2.1 0.7-4.3 1.4-5.8 1.8 0.6 1.8 1.6 3.4 1.5 4.8-0.5 3.8 0.3 8.1-3.8 10.9-3.9 2.6-15.6 2.8-19.1-0.1-0.8-0.7-1.4-1.7-1.7-2.7-6.3-23.7-17.4-45.1-31.9-64.8-0.5-0.6-0.8-1.4-1.5-2.7 5.5-0.6 10.7-1.4 15.8-1.9 6.8-0.7 6.8-0.6 6.6 6.3-0.1 3.4 0 6.9 0 10.3 0 0.3 0.2 0.5 0.4 1 4.2-0.5 5.7 1.7 5.4 5.8-0.3 3.8 3.2 2.2 5 3.2 0 2 0 4.1 0 6.9 2.4-0.7 4.6-1.3 6.6-1.8-1-2-2.4-3.8-2.7-5.8-0.7-3.8-2.7-4-5.6-2.8-0.4 0.2-0.9 0.3-1.8 0.6-0.2-2-0.1-4-0.7-5.6-0.6-1.3-2.1-2.1-3.9-3.8q0-7.2 0-18c5.9 2.4 11.1 4.4 16.2 6.6 0.4 0.2 0.4 1.9 0.3 2.8-0.3 2.3-0.9 4.6-1.2 6.9-0.4 2.1-0.4 4.1 2.3 4.8 0.3 0.1 0.9 0.7 0.9 1-0.5 3.8 2.6 3.8 5.1 4.6-0.4 1.1-0.8 2.1-1.2 3q0.5-0.1 1-0.2c0.5 1.6 1.5 3.4 1.2 4.9-0.3 2.5-1.1 2.5-7 2 1.7 2.8 4.2 3.2 7 3.2 2.4-0.1 4.9-0.2 7.4-0.4 7.9-0.7 13.5 3.1 16.9 9.6 2.8 5.4 6.4 9.7 11.4 12.8 2.7 1.7 5.9 2.8 9.1 3.3 3.3 0.6 6.8 0.1 10.2 0.6-2.9 3.4-7.1 3.2-11 4.4q3.3 1.2 6.5 2.4-0.1 0.7-0.3 1.4c-4 1.5-8.1 1.1-12.1-0.5-6-2.4-9.6-7.3-12.8-12.5-2.1-3.3-3.8-6.9-5.7-10.3-2.7-4.6-6.6-7-12.1-6.7-4.1 0.2-8.3 0-12.4 0.2-2.7 0.1-4.7-0.4-4.6-3.6z"/>
	<path id="Layer" class="s0" d="m120.4 493.9c2.9 3.9 5.3 6.8 7.3 9.9 16.9 25.7 39.8 39.8 71.3 39.3 18.1-0.3 35.3-4.2 52.4-9.3 23-6.9 45.8-14.3 68.8-21 6.4-1.9 13.2-2.5 19.9-3.5 1.3-0.2 2.6 0.4 4.3 0.7-0.6 1-0.7 1.4-0.9 1.4-14.8 1.4-27.8 8.4-41.3 13.9-23.2 9.5-46.3 19.1-70.6 25.2-5.9 1.5-12 1.8-18 2.2-16.9 0.8-33.7-0.2-50.3-4.1-8.7-2.1-16.2-6.2-22.9-11.8-7.3-6-14.2-12.5-21.1-19-1-0.9-1.9-2.7-1.8-4 0.7-6.3 1.8-12.6 2.9-19.9z"/>
	<path id="Layer" class="s0" d="m147.1 189.9c-4.2 0.3-7.9 0.6-11.6 0.9q0 0.3-0.1 0.7c1.5 0.2 3.2 0.8 4.6 0.5 3.2-0.7 4.8 0.4 5.9 3.4 2.2 6 6.7 9.7 12.9 11.2 4.5 1 6.7 3.3 7.2 8.1 1.5 13 8.8 22.3 19.8 29q10.2 6.1 20.3 12.5c1.7 1.1 3.4 2.4 5.1 3.7q-0.2 0.4-0.4 0.8c-11-4.3-22.1-8.5-33-12.9-3.6-1.5-7.2-3.3-10.2-5.6-4.8-3.8-6.9-9.4-8.5-15.2-0.4-1.6-0.8-3.3-0.8-4.9 0.1-6-2.8-9.7-8.3-12.2-5.4-2.5-10.2-6.1-13.2-11.6-1.9 0.9-3.6 2-5.4 2.3-1 0.2-2.9-0.4-3.2-1.1q-3-6.5-5.2-13.2c-0.5-1.4-0.7-3.8 0.1-4.5 1.6-1.5 3.2-3.6 6.4-2.3 4.3 1.8 8.7 4.2 13.7 2.3 2.6-1 5.1-2.4 8.1-3.8 9.2 17.3 24.5 29.7 37.4 44.6-2.7 0.4-5 0.8-7.5 1.1-0.2 4.1 2.1 6.7 4.7 8.9 8.9 7.8 19.3 11.3 31.6 10.6-3.5-8.7-11.5-12.9-18.2-18.7 11.7 0.7 39.2 21.5 43.6 34.8-2.1-0.8-3.9-1.3-5.4-2.2-6.5-3.7-13.5-5.1-20.9-4.5-8.4 0.8-14.9-4-22-7.3-13.4-6.5-21.7-17.5-26.5-31.2-1.9-5.3-4.6-9.2-10.1-11.3-6.1-2.2-9.8-7-10.9-12.9z"/>
	<path id="Layer" fill-rule="evenodd" class="s0" d="m227.1 88c-0.6-1.7-0.9-2.5-1-2.8 6.4 1.7 13.1 3.6 19.8 5.2 3.7 0.9 7.5 1.1 11.2 1.9 14.9 3.5 24 13.2 27.8 27.6 2.3 9 7.1 16.4 12.6 23.6 0.8 1.2 1.7 2.4 2.1 4-9.1-7.6-20.4-12.7-25.2-24.9-2.1-5.4-5.3-10.4-8.6-15.1-6-8.4-15.1-11.3-24-13.2 4 5 8.2 10.3 12.8 15.9-5.5 0.4-7.1 1.7-6.2 6.5 0.9 4.9 2.9 9.6 4.7 14.4 0.8 2.3 2.2 4.3 3 7.2-1.1-0.5-2.1-1.1-3.2-1.6-8.8-3.4-17.6-7.1-26.5-10.1-3-1-4.4-2.3-4.9-5.1q-1.1-5.8-2.2-11.5c-2.9-14.8-10.6-25.8-25.3-31-2-0.7-3.8-1.7-5.8-2.6 4-4.3 11.3-5.7 16.8-2.7 6 3.3 11.6 7.4 17.4 11.1 1.3 0.9 2.6 1.7 4.7 3.2zm6.2 2.6q-0.2 0.4-0.3 0.8 1.9 0.6 3.8 1.3 0-0.2 0.1-0.4-1.8-0.9-3.6-1.7z"/>
	<path id="Layer" class="s0" d="m275.3 421.1c4 1.9 8.6 1.5 9.7 6.7-3.8 0.2-7.3 0.4-10.8 0.4-2 0-2.9 0.7-3 2.7-0.1 2.6-0.5 5.2-0.2 7.8 0.2 1.8 1.3 3.6 2.2 5.3 0.8 1.5 1.9 2.7 3 4.2-6 2.8-10 0.8-10.7-5.1-0.3-3.1 0-6.2 0-10-0.8 1.8-1.2 3-2.1 5.3-1.2-2.1-2.5-3.4-2.7-4.8-0.9-4.9-3.1-8.6-7.3-11.3-0.9-0.6-1.5-2.3-1.6-3.5-0.3-4.3-1.8-6.9-6.1-7.5-4.8-0.6-9.7-0.6-14.5-0.7-5 0-5.2-0.1-6-6.3 7.8 6 14.9-1.5 22.5-0.5 1 0.2 2.2-1.8 3.9-3.6 6.5 4.8 13 9.7 19.4 14.5 0.6-0.3 1.5-1 2.5-1.2 3.3-0.8 6.6-1.3 9.9-2.1 3.2-0.8 5.6 0.7 6.9 3.2 2.6 4.9 6.7 7.8 11.5 10.1 3.1 1.5 4.9 7.4 3.2 9.5 8.6 12.7 9.6 27 9.8 41.5q-0.4 0.2-0.9 0.3c-0.3-0.5-0.8-1-1.1-1.6-3.6-7-8.8-12.9-14.4-18.4-6.5-6.3-6.7-9.5-1.6-17 1.2-1.7 2.4-3.4 3.7-5.2-5.5-1.6-6.6-1-7.6 4-0.3 1.5-0.7 3-1.4 5.5-1.3-2.1-2-3.2-2.8-4.5 4.7 15.8 2.3 31.3 0.6 46.8q-0.6 0.1-1.1 0.2c-0.5-2-1-4-1.4-6-1.6-7.8-2.9-15.7-4.8-23.4-1.2-5.2-3.4-10-7.8-13.6-2.8-2.3-2.3-5.3-0.8-8.1 1.6-3.1 6.1-6.2 8.2-5.3 1.7 0.7 2.9 2.5 4.4 3.9 2.1-7.5-2.3-13.1-10.7-12.2z"/>
	<path id="Layer" class="s0" d="m341 384.2c12.9-12.4 18.7-28.1 23-44.5 1.7-6.6 1.4-7 8.2-6.2 11.3 1.3 22.5 3.1 34.6 4.8-2.3 7.5-4.2 14.5-6.6 21.3-4.5 12.7-11 24.3-20.1 34.1-5.2 5.7-11.5 10.4-19 12.9-1.3 0.4-3.2 0.4-4.3-0.3-5.8-3.4-10.1-8.2-12.3-14.7-0.8-2.5-0.9-3.9 2.6-4.5 9.6-1.7 17.1-6.8 23-15.9-4.1 1.6-7.3 2.9-11.5 4.5 8.1-8.2 14.8-16.2 18-27.1 3.4 2 6.7 3.8 9.8 5.8 0.6 0.4 0.9 2 0.5 2.7-5.3 11.6-11.8 22.5-22.1 30.5-1.3 1-2.4 2.2-3.8 3.4 0.8 1.2 1.5 2.1 2.3 3.3 12.1-10.3 25.2-19.4 29.3-35.9 0.9-3.6 1.4-7.4 2.2-11.5-3.5-0.3-6.4-0.5-9.3-0.8-3.5-0.4-7.1-0.7-10.6-1.4-2.8-0.6-4.2-0.1-5.1 2.9-3.7 12-10.2 22.2-19.6 30.5-2.8 2.4-6.1 4.1-9.2 6.1z"/>
	<path id="Layer" class="s0" d="m304.1 289.1c-2.7-8.6-7.9-14.6-14.2-19.8-11.2-9.3-23.9-16.3-37.5-21.4-0.3-0.2-0.6-0.4-0.8-1.2 2.2 0.2 4.3 0.4 6.4 0.8 14.1 2.5 27.1 7.8 38.6 16.4 9.6 7.2 13.8 17.7 16.7 28.7 1.4 4.9 1.6 10.2 2.2 15.4 0.1 1.4-0.4 3-0.7 5.2-2.7-2.3-5-4.1-7.1-6.1-13.3-13-29.6-20.6-46.9-26.8-11-3.8-21.5-8.9-32-13.9-3.5-1.6-6.5-4.3-9.6-6.7-1.2-0.9-2-2.4-3.4-4.1 11.4 0.2 21.6 2.3 31.8 7.6-1.6-9.7-7.6-15.5-12.9-21.8 8.9 4.9 17.7 10 21.7 20.2 0.6 1.4 1.1 2.8 1.6 4.3 0.8 3 2.8 4.7 5.7 5.8 5.5 2 10.9 4.4 16.4 6.6q0.4-0.6 0.8-1.1c-3.7-3.5-7.3-7.2-11.2-10.4-3.9-3.2-8.2-5.9-13.1-9.3 21.2 3.2 33.2 18.6 47.5 31.6z"/>
	<path id="Layer" class="s0" d="m265.8 387.3c2.3 0.4 4.8 0.6 7.1 1.2 20 5.6 39.5 3.9 58.6-3.8 2.3-1 3.8-0.9 4.6 1.7 2.5 7.9 8.3 13.4 13.5 19.4 1 1.1 1.8 2.3 2.9 3.8-8.6 4.2-17.3 4.7-26.2 4.5-4.2-0.1-8.6 0.6-12.7 0-5.9-0.7-11.8-1.8-17.3-3.7-15.7-5.4-31.2-11.4-46.9-16.9-8.9-3.2-18-6-27-9-1.9-0.7-3.7-1.6-6.4-2.7 16.7-3.3 32.3-2.7 48 1.6-3 0.7-5.8 1.4-8.6 2.1q0 0.6-0.1 1.1c24.3 10.7 48.7 20.8 77.2 17.8-2.1-3.1-3.9-5.8-5.9-8.6-2.5 5-2.5 4.8-7.9 5.3-15.4 1.5-29.5-3.6-43.5-8.9-3.3-1.3-6.5-2.7-9.7-4q0.1-0.4 0.2-0.9z"/>
	<path id="Layer" class="s0" d="m188.4 160.4c-1.2 3.5-2.1 6.2-3 8.8-0.1 0.6-0.4 1.3-0.2 1.7q4.3 8.5 8.8 17c0.3 0.5 1.1 0.8 2.6 1.9-1.4-8.1-9.1-13.4-5.9-22.1 5.2 9.9 12.2 17.8 22.3 22.7q0.2 0.7 0.5 1.4c-1 0.4-1.9 1-2.9 1.4-9.3 4-15.3 11.9-21.5 19.3-2.3 2.7-3.9 3.1-6.6 0.8-12.2-10.2-21.9-22.1-26.5-37.6-0.2-0.7-0.3-1.4-0.4-2.1-0.8-4.9-0.4-5.2 4.2-7.1 7.8-3.4 15.8-5.7 24.4-6.1 0.9 0 1.8 0 4.2 0z"/>
	<path id="Layer" class="s0" d="m449.1 516.9c0.7-2.3 1.5-5 2.6-8.5 3.8 4.1 7.2 7.9 11.2 12.1 0.9-1.6 1.6-2.5 1.9-3.5 1-3.1 2.9-3.3 5.4-1.8 3.9 2.1 7.9 4.2 12.2 6.6-0.3-2.3-0.5-3.9-0.8-6 9.9 1.6 17.1 6.3 22 14.3 3.2 5.4 6.1 11 9.1 16.5 0.2 0.5 0.1 1.1 0.4 2.8-2.5-1.5-4.5-2.2-5.9-3.6-10.1-9.9-22.6-11-35.8-10-4.8 0.4-9.7 0.3-14.5-0.1-8-0.6-13.9-5-18.6-11.2-1.6-2-3.4-3.9-5.3-6.2-1.2 2.2-2.2 4-3.1 5.7q-0.6 0.1-1.1 0.2c-2.2-11.6-9.9-19.5-18.3-27.7 8.6-1.9 15.8 0.2 21.9 4.9 5.9 4.6 11.1 10.2 16.6 15.5z"/>
	<path id="Layer" class="s0" d="m104.9 437.3c3.2-4.3 6.6-8.5 9.6-13 5.2-7.6 9.7-15.7 15.3-23.1 3.1-4.2 7.6-7.4 11.7-10.9 4.6-4 5.4-6.7 2.2-12-2-3.5-4.6-6.6-7-10 0.5-0.2 0.9-0.4 1.1-0.3 7.7 3.3 13.3 8.7 16.1 16.6 1.4 4 0 5.5-3 8.1-7.1 6.4-14 12.8-20.3 19.9-7.4 8.3-13 17.8-16.3 28.5-0.2 0.6-0.6 1.3-1.1 1.8-6.4 5.5-9.8 12.6-12.1 20.6-0.1 0.4-0.3 0.8-0.7 1.8-2.8-10.9-4.1-21.3-2.4-31.9 0.8-4.7 1.4-9.4 2.5-14 2.9-13.5 9.7-25.2 17.2-36.5 4-6 8.5-11.7 13-17.7 5.4 4.6 7.8 10.8 8.6 17.7 0.1 0.8-0.5 1.8-1 2.5-7.8 10.2-15.7 20.3-23.6 30.4-0.5 0.6-1 1.3-1.5 2-0.4-0.5-0.7-0.7-0.6-0.8 4.9-10.5 7.7-22.1 15.3-31.2 1.9-2.4 1.8-2.6-0.8-5.8-12.9 17-19.9 36-23.7 56.4q0.8 0.4 1.5 0.9z"/>
	<path id="Layer" class="s0" d="m130.7 363.1c4.2-5.6 9.2-9.5 14.6-12.6 9-5.3 18.2-10.2 27.5-14.9 5-2.6 10.2-3.1 15.1 0.8 3.7 3 7.7 5.8 11.6 8.6q-0.1 0.6-0.3 1.3c-3.1 0.5-6.3 1.3-9.5 1.6-3.7 0.4-7.3 0.3-11 0.5-8.8 0.5-15.6 6-23.7 9.2 3.3 5.7 6.4 11.1 9.4 16.4q0.5-0.1 0.9-0.3c0-5.4 0-10.8 0-17.1 7.5 7.8 11.7 16.2 13.6 25.7-7.3 1.6-14.3 3.1-21.7 4.7-0.6-16.5-12.7-20.9-26.5-23.9z"/>
	<path id="Layer" class="s0" d="m127.1 198.7c-0.5 7.8 3.1 11.8 8.7 14.5 2.4 1.2 3.4 3.1 2.6 5.5-3.7 0.2-8-0.8-10.5 0.9-2.6 1.7-3.5 6-5.3 9.5-2.4-0.3-3-2.4-2.4-4.6 1.3-4.4-0.2-8.2-2-11.9-0.6-1.2-2.3-2-3.7-2.4-1.4-0.4-3-0.2-4.6-0.2-1.9 0-3.2-0.3-3.7-2.7-0.3-1.2-2.5-1.9-4.2-2.2 2.2 3.5 4.6 6.9 6.5 10.6 1.6 3 1.2 3.3-2.1 4.6 1.1 0.2 2 0.4 3 0.5 6 0.9 6 0.9 4.4 7.4-3.7-3.6-7.1-2-10.4 0.5-3.6 2.6-3.7 6.6-3.9 11-1.3 0-2.6-0.1-3.8 0-2.3 0.1-2.8-1.1-2.5-3.2 0.7-4.9 1.3-9.8 2-14.8 0.7-5.5-0.6-8-5.9-9.7-4.2-1.4-8.7-2.2-13.6-3.3 0.5-6.8 1-13.7 1.5-21.4 1.9 1.4 3.3 2.4 4.6 3.5 4.1 3.2 8.4 5.1 13.9 3.5 1.4-0.4 3.7 0.2 5 1.3 4.5 3.5 9.2 5.8 15.1 4.8 3.5-0.5 7-1 11.3-1.7z"/>
	<path id="Layer" class="s0" d="m323.1 109.4c-1.3-1.4-2.7-2.9-4.2-4.6-0.8 0.5-1.7 1-2.7 1.6-0.7-0.8-1.4-1.6-1.4-1.7-3.3 0.4-6.2 0.7-9 1q0-0.4 0-0.8-1.3 1.2-2.6 2.4c-0.7-1-1.6-2-2-3.1-4-11.3-9.8-21.7-15.2-32.4-9.3-18.2-22-33.7-33.8-50-0.2-0.3-0.2-0.6 0-1.2 29.8 24.6 59.5 49.3 70.9 88.8z"/>
	<path id="Layer" class="s0" d="m403.7 491.1c0.7 2.7 1.3 5 2.2 8.2-11.6-7-22.3-14.2-36-14.1 0.3 1.6 0.5 3 0.9 4.7-5.3-1.3-10.1-3-15.1-3.6-4.9-0.6-10-0.2-15.1-0.2 1 2 1.8 3.7 2.6 5.1-7.7 0-14.8 0-22 0q-0.1-0.6-0.2-1.2c0.6-0.4 1.2-1 1.8-1.3 4.9-2.8 9.8-5.4 14.6-8.2 14.2-8.4 29.4-9.2 45.1-5.8 7.1 1.5 14.2 3 21.3 4.3 7.6 1.4 14.9 0.2 21.8-3.1 1.6-0.7 3.2-1.2 5.1-1.3-6.8 9-17 12.4-27 16.5z"/>
	<path id="Layer" class="s0" d="m416.8 384.4c-0.9 0.1-1.6 0.3-2.4 0.4-0.1-0.7-0.2-1.3-0.3-1.8-0.1-6.2-0.5-6.8-6.8-6.9-3.6 0-7.2 0.7-11.9 1.2 3.1-6.1 5.4-12 8.8-17.2 2.8-4.4 14.8-3.1 18.1 1 2.4 3 5.5 5.4 8.4 7.9 2.2 2 4.8 3.6 6.6 5.8 1.4 1.7 4 3.9 1 6.6-0.2 0.2 0 1 0.2 1.4 4.2 12 2.7 24.1 0.3 36.2-0.3 2-0.6 3.9-1.8 6-0.5-1.9-1-3.9-1.6-5.8-2.5-6.9-4.1-14.3-7.7-20.5-3.6-6.3-0.7-15.5 5.9-18.3-2.2-0.4-3.8-0.9-5.3-0.7-1.1 0.1-2.5 0.9-3.1 1.8-1.2 2.2-2.4 4.5-2.7 6.9-0.4 2.4 0.3 4.9 0.5 7.6-2.3-1.2-5-2.4-7.3-4-0.6-0.4-0.6-2.1-0.4-3.2 0.2-1.4 0.9-2.7 1.5-4.4z"/>
	<path id="Layer" class="s0" d="m216.6 400.1c4.3 1.3 4.4 1.5 7.6 12 4.4 0 8.7 0.1 13.1 0 12-0.1 11.9-0.1 13.4 11.6 0.6 4.3 1.2 8.6 1.8 12.9 6.6-1.1 9 0.7 9.3 7.6-2.8-0.8-5.3-1.4-7.8-2.2-4.8-1.4-9.2 1.6-9.6 6.5-0.3 3.9-0.5 7.8-0.8 11.7 0 0.4-0.2 0.7-0.3 1.3-2.2 0-4.4 0-7.3 0 0.3-3.3 0.7-6.3 0.9-9.3 0.5-6.9 1.2-13.9 1.4-20.8 0.1-2-1.4-4-2.1-6q-0.6 0.2-1.3 0.4c0.3 2 0.5 4 0.9 6.7-1.5-0.7-2.5-1.3-3.5-1.6-2.3-0.8-4.7-1.5-7-2.2-2.8-0.7-5.7-0.9-8.3-2-6.8-2.8-9.1-7.2-7.9-14.4 0.1-1.1 1.5-2.7 2.3-2.7 4-0.1 4.7-2.6 4.8-5.7 0.1-1.2 0.2-2.4 0.4-3.8z"/>
	<path id="Layer" class="s0" d="m124.9 163.5c0.5 1.3 1.1 2.6 1.5 3.9 1.7 6-2.2 10.3-8.3 8.9-5.4-1.2-9.1-4.7-11.6-9.9 1.1-0.3 2-0.5 3.3-0.9-0.7-0.4-0.9-0.7-1.2-0.7-6.8-0.1-9.7-3.8-10.9-10.4-1.3-6.7-4.8-12.5-9.7-17.4-0.3-0.3-0.5-0.8-0.7-1.1q0.3-0.4 0.6-0.8c4 2.5 8.4 4.5 12 7.5 4 3.5 8 6 13.5 6.5 2.6 0.2 5.3 1.1 7.6 2.5 3.6 2.1 7.4 2.9 11.4 3.1 5.2 0.4 10.3 0.9 13.6 5.7 3.2 4.6 2 13.6-2.2 17-3.9 3.2-9.6 1.7-12.3-3.4-1-2-1.4-4.3-2.3-6.3-0.8-1.7-2-3.3-3.1-4.9q-0.6 0.4-1.2 0.7z"/>
	<path id="Layer" class="s0" d="m241.3 68.1c-4.2-0.4-7.9-0.9-11.5-0.9-5.1 0.1-10.2 0.7-15.3 0.7-2.1 0-4.6-0.6-6.2-1.9-15.3-11.7-32.6-19.3-51-24.5-5.4-1.5-10.5-3.5-16.2-5.5 19.3-8 83.8 12.6 100.2 32.1z"/>
	<path id="Layer" class="s0" d="m282.8 168.5c0-2.8 0.1-4.4 0-6-0.5-9.6 8.4-15.9 17.4-12.6 5.9 2.1 12 3.5 18 5.2 1.8 0.5 3.7 0.9 6 1.5-0.9 0.8-1.5 1.4-2.3 2.1 0.4 0.8 0.9 1.6 1.6 2.8-1.8 0-3.2 0-5 0 0.6 1.3 1 2.2 1.8 4-7.9-2.1-15.1-1.8-22.1 1.3q5.3-0.8 10.7-1.6c-5.3 4.2-11.3 6.2-17.9 6.4-2.6 0.2-5.2 0-7.8 0.3-5.7 0.7-10.7 0.1-15.6-3.9-3.3-2.7-8.1-3.6-12.2-5.4-1.2-0.5-2.3-1.3-3.3-2.1-1.2-0.9-2.3-2-3.6-3.1 0.4-0.3 1-0.8 2.2-1.9-2.5-0.7-4.6-1.4-7.2-2.1 1.2-1.6 2.3-3 3.5-4.7-2-0.8-4-1.7-6.3-2.6 0.8-1.1 1.4-1.9 2.2-3.1q-3.2-1.9-6.3-3.8 0.4-0.2 0.8-0.4c-0.6-1.5-1.1-3.1-1.7-4.8 7.9 1.1 14.8 4.1 18.8 11.6 4.5 8.6 10.9 15.2 19.3 19.8 2.5 1.4 5.6 1.9 9 3.1z"/>
	<path id="Layer" class="s0" d="m96.9 169.2c-2.4-4.4-4.8-8.6-7.1-12.8q-0.4 0.2-0.8 0.4 0.6 3.8 1.2 7.7 0.4-0.3 0.7-0.5c0.9 1 2.5 1.9 2.6 3 1.1 8.4 1.8 16.9 2.8 26.4-3.6-0.5-6.6-0.4-9.1-1.5-2.9-1.3-5.5-3.4-7.6-5.8-1.3-1.3-1.6-3.8-1.7-5.8-0.4-6.6-0.3-13.3-3.7-19.3-1.6-2.8-3.4-5.4-5.3-8.5 7.3-4.8 5.2-12.6 5.8-19.8 4.2 0.4 8.3 0.9 11.1 4.2 7.1 8.3 12.1 17.6 12 28.9 0 0.7-0.1 1.5-0.2 2.2 0 0.3-0.3 0.5-0.7 1.2z"/>
	<path id="Layer" class="s0" d="m193.4 135.5q-1.8 1.6-3.7 3.1c-2.6 2.1-5.6 3.9-7.7 6.5-1.9 2.4-3.8 3.1-6.7 2.4-2.8-0.8-5.7-1.5-8.6-2.1-1.4-0.2-2.9 0-4.4 0.5 5.1 3.3 10.7 4.7 16.6 5 0.8 0 1.7-1.4 2.4-2.3 1.7-2.1 3.3-4.3 5.5-7.2-0.6 6.3-1 11.4-1.4 16.4-10.4 1.8-21 3.7-32.1 5.6 0-1.3-0.2-2.7 0-4 1.6-10.2 3.9-20.3 9.8-29.1 3.5-5.3 8.7-8.7 14.2-11.4 0.9-0.4 2.8 0.3 3.5 1.1 3.4 4 6.5 8.2 9.7 12.3 0.9 1.2 2 2.2 3 3.3 0 0-0.1-0.1-0.1-0.1z"/>
	<path id="Layer" class="s0" d="m232.8 170.6c-0.8 0.4-1.6 1.4-2.2 1.2-1.7-0.4-3.3-1.3-5.5-2.3-0.9 2.8-1.7 5.5-2.7 8.8 1.7-0.8 2.7-1.2 3.9-1.8-0.4-1.1-0.7-2.2-1-3.3 15-2.1 23.4 19 20.6 30.4-7.4-7.3-14.9-14.9-22.5-22.4q-0.3 0.1-0.6 0.3 1.1 2.8 2.3 5.7c-4.6 0.4-6.6-1.9-8.7-5.2-2.2-3.3-2.9-6.9-4.8-10.2-0.6-1.1-2.9-1.2-3.7-1.5-2.1 3.9-3.8 7.1-5.6 10.3q-0.7 0.1-1.4 0.2c-1.8-3.1-4.1-6.1-5.3-9.5-0.5-1.4 0.5-4.2 1.8-5.3 3.4-3 7.3-5.5 11.2-7.9 0.8-0.5 2.6 0.1 3.7 0.7 2.9 1.5 5.6 3.4 8.5 5 3.9 2.1 7.9 4.2 11.8 6.3q0.1 0.3 0.2 0.5z"/>
	<path id="Layer" class="s0" d="m270.4 194c2.3 3.9 4.3 7.2 6.3 10.5q0.5-0.2 0.9-0.4c-0.6-4.5-3-8.9-0.8-14.2 1 1.5 1.7 2.5 2.9 4-0.4-6.4-3.1-11-7.1-14.9 4.2-1.5 7.5-0.2 8.9 4.3 1.5 5 2.3 10.3 3.5 15.9-1.5-0.5-2.4-0.8-4.1-1.4 3.4 5.9 7.7 9.4 13.6 11.3 2 0.7 4.4 2.3 5.2 4.1 4.1 9.4 7.7 19.1 11.5 28.7 0.2 0.8 0.3 1.5 0.6 2.7-3.8-0.6-5.6-3.1-7.3-5.6-2.5-3.8-4.5-8.2-7.5-11.6-2.8-3.3-6.1-6.3-9.9-8.3-7.7-4.2-14.3-9-16.2-18.2-0.4-2.1-0.3-4.3-0.5-6.9z"/>
	<path id="Layer" class="s0" d="m111.7 508.5c-6.1-10.8-10-22.5-9.1-34.8 0.7-9.5 4.2-18.9 9.6-27.1q0.6 0.1 1.2 0.2c0.8 6.8 2 13.7 2.2 20.6 0.2 7.2 0.8 14.1 3.4 20.9 0.7 1.7 0.6 4.1 0 5.8-1.8 4.9-4.1 9.6-6.2 14.3q-0.5 0.1-1.1 0.1z"/>
	<path id="Layer" class="s0" d="m475.4 381.2c-4.9-2.4-9.1-0.5-10.1 4.4-0.8 3.7-1 7.6-1.5 11.8-1.9-11.2-3.7-22.1-5.5-33.1 4.8 2.8 10 5.8 15.7 9.1-1.6 0.7-2.4 1.1-3.3 1.5q0.1 0.4 0.1 0.7c1.8 0 3.6 0.1 5.5 0 2.1-0.1 3 1 2.3 2.8-2.1 5.5-0.1 10.7 0.6 16 0.4 4.1-0.2 8.4-1.1 12.4-1.2 6-3.1 11.8-4.8 17.7q-0.6 0-1.2-0.1c-0.3-2.2-0.9-4.3-1-6.5-0.5-7.8-1.6-15.3-4.8-22.5-1.8-4 1.1-9.8 5.5-12.3 1.1-0.6 2.2-1.1 3.6-1.9z"/>
	<path id="Layer" class="s0" d="m193.5 135.6c-2.4-4.3-4.8-8.6-7.3-12.8-1.1-2.1-2.4-4-4.2-6.9 9.7-1.5 18.7-2.9 27.8-4.1 2.9-0.4 5 1.2 6.3 3.7q0.8 1.4 1.3 2.9c3 7.9 2.8 8.1-5 10.4-3.6 1.1-7 2.8-10.6 4.1-2.7 1-5.6 1.7-8.4 2.6 0 0 0.1 0.1 0.1 0.1z"/>
	<path id="Layer" class="s0" d="m74.8 373.3c20.2-18 43.3-28.1 71.5-27.7-1.7 1.7-2.9 3.1-4.2 4.3-3.4 3.1-6.7 6.4-10.3 9.3-1.1 0.9-3 1.3-4.5 1.2-12.7-1.2-24.8 1.1-36.6 5.7-4.2 1.6-8.2 3.8-12.2 5.8-1.2 0.5-2.5 0.9-3.7 1.4z"/>
	<path id="Layer" class="s0" d="m171.7 332.9c-7.3 3.9-14 8.3-22.2 9.3-0.7 0-1.5 0.1-2.1-0.2-10.1-5.8-21.3-4.8-32.2-5.2-3.6-0.1-7.2 0-11.5 0 11-8 50.8-13.2 68-3.9z"/>
	<path id="Layer" class="s0" d="m125.2 55.4c4.3-0.6 8.6-1.2 12.8-1.8 15.6-2 31.2-1.8 46.3 2.1 7.2 1.8 14.5 4.9 20.6 11.6-7.1 0.3-13.3 0.5-19.5 0.7-0.4 0-1-0.2-1.3-0.4-11.1-7.4-23.7-8.4-36.4-9.1-7.5-0.4-15-1.3-22.5-2q0-0.5 0-1.1z"/>
	<path id="Layer" class="s0" d="m264.9 493.7c-1-3.3-1.8-6-2.8-8.6-1.9-4.8-3.4-9.8-5.9-14.3-1.6-2.8-4.4-5-7-6.9-2.2-1.4-3-2.8-2.2-5.2 1.4-3.7 2.4-7.7 4.5-11.1 2.9-4.7 7.6-4.7 10.7-0.2 1.5 2.2 2.6 4.9 3.1 7.5 2 12.3 1.4 24.8 0.4 37.2 0 0.3-0.2 0.5-0.8 1.6z"/>
	<path id="Layer" class="s0" d="m455.2 362.5c-2.7-0.4-5.5-0.6-8.1-1.2-5-1-6.1-0.3-6.1 4.7 0 2.5 0.2 4.9 0.4 7.7-3.5-0.8-6.3-1.6-7.1-5.5-0.2-1.2-1.5-2.5-2.6-3.3-3.5-2.5-7.1-5-11-7.2-1.5-0.9-3.6-0.7-5.4-1-1.3-0.2-2.5-0.3-4.1-0.5 0.9-4.6 3.4-7.7 6.9-9.4 7.7-3.9 8.3-3.6 14.6 2.4 3.2 3.2 6.7 5.1 11.7 4.7 5.1-0.4 7.8 4.1 11.1 7.2q-0.1 0.7-0.3 1.4z"/>
	<path id="Layer" class="s0" d="m114.2 70.6c2-0.6 4-1.5 6-1.8 9.7-1.5 19.4-3.4 29.2-4.2 10.5-0.9 20.8 0.8 30.4 5.4 1 0.5 1.9 1.2 3.7 2.4-2.8 0.5-4.6 0.8-6.4 1.2-1.8 0.5-4.2 0.5-5.3 1.7-3.6 3.7-7.4 2.4-11.2 1.3-12.9-3.6-26.3-3.4-39.5-4.7-2.3-0.2-4.5-0.3-6.7-0.4q-0.1-0.5-0.2-0.9z"/>
	<path id="Layer" class="s0" d="m213 70.8c21.8-2.5 40.2 3.2 51.6 19.9-0.2 0.2-0.4 0.5-0.5 0.4-6-3.1-12.6-3.6-19.3-3.9-10.4-0.6-19.4-5.1-27.4-11.6-1.5-1.3-2.7-2.9-4.4-4.8z"/>
	<path id="Layer" class="s0" d="m247.3 96.3c2.8 1.5 5.8 2.7 8.5 4.4 6 4 9.4 10.1 11.5 16.7 2.6 8.3 8.2 13.9 14.5 19.2 3.9 3.3 7.6 6.7 11.1 10.6-8.1-1.7-15.8-3.6-22.3-8.9-5-4-8.2-9.2-10.9-14.7-0.8-1.8-0.6-4-1-5.9-1.9-8-5.7-14.9-12.1-20.3q0.3-0.6 0.7-1.1z"/>
	<path id="Layer" class="s0" d="m146.5 315.9c20.1-3.8 38.7 0.6 56.1 11.4-8.5 1.2-17 2.5-25.5 3.6-0.8 0.2-1.9-0.2-2.5-0.8-6.5-5.6-14-9.2-22.3-11.3-2-0.5-3.9-1.3-5.9-2q0-0.5 0.1-0.9z"/>
	<path id="Layer" class="s0" d="m124.3 365.8c-3.5 4.6-6.8 9.3-10.5 13.8-0.7 0.8-2.5 0.9-3.9 0.9-8.1 0.2-16 1.5-23.7 4.2-3.2 1.1-6.6 1.5-10.1 1.8 14.2-10.8 27.8-22.7 47.3-21.7q0.5 0.5 0.9 1z"/>
	<path id="Layer" class="s0" d="m454.7 413.8c-0.4-2.6-1-5-1.2-7.4-1.1-11.3-3.4-22.2-9.1-32.2-0.6-1-0.9-2.3-1.1-3.4-0.6-4.1 0.6-6.7 3.5-7.6 3.1-1 7.3 0.7 8.5 4.2 1.7 5.4 3.8 11.1 3.7 16.5-0.3 9.8-2.2 19.5-3.4 29.2 0 0.2-0.4 0.3-0.9 0.7z"/>
	<path id="Layer" class="s0" d="m252.3 115.7c4.1 1.3 5.4 5.3 6.5 8.5 3.5 11.1 10.6 18.9 20.4 24.6 2.4 1.5 3 3 2.4 5.7-0.7 3.1-0.8 6.3-1.2 10.2-2.2-1.1-4-1.7-5.4-2.7-8.9-6.6-15.2-14.7-17.3-26-1.3-6.8-3.5-13.4-5.4-20.3z"/>
	<path id="Layer" class="s0" d="m180.7 309.9c18.3-0.8 48.4 10 55.1 20.5-7.5-0.4-14.5-0.7-21.5-1.3-1.8-0.2-3.8-1.2-5.1-2.3-7.7-6.8-16.5-11.6-25.9-15.4-0.6-0.2-1.1-0.6-2.6-1.5z"/>
	<path id="Layer" class="s0" d="m126.3 271.7c0.7-3.2 1.3-6.4 2-9.6 1.8-7.7 3.1-15.4 1.7-23.2-0.4-2.4-1.3-4.8-2.3-7.1-1.3-2.5-1.3-4.6 1-6.5 1.7-1.5 3.3-3.2 5.8-5.6 1.7 3.2 3.7 5.7 4.1 8.4 2.5 13.9-0.8 27-7.1 39.4-0.9 1.8-2.7 3.1-4.1 4.7q-0.6-0.2-1.1-0.5z"/>
	<path id="Layer" class="s0" d="m151.6 219.6c4 3.3 5 7.6 5.4 12 1.4 12.3-1.6 23.7-6.9 34.7-1.1 2.1-2.9 3.8-4.4 5.7q-0.6-0.2-1.2-0.4c0.7-3.3 1.2-6.5 2-9.7 2-8.2 3.4-16.3 1.3-24.6-0.7-2.6-1.8-5.2-2.7-7.7-0.7-1.9-0.5-3.2 1.3-4.6 1.9-1.4 3.4-3.4 5.2-5.4z"/>
	<path id="Layer" class="s0" d="m75.4 409.7c7.8-12.5 19.1-21.5 35.6-23.9-2.6 5.1-5.1 10.2-7.7 15.3-0.2 0.4-1 0.6-1.6 0.8-8.9 2.6-17.8 5.2-26.3 7.8z"/>
	<path id="Layer" class="s0" d="m99.8 275.2c0.6-3.4 0.9-6.9 2.1-10 3.3-8.5 3.1-17.1 0.1-25.4-1.4-4-0.5-6.6 2.5-9 1-0.7 2-1.7 2.9-2.5 3.6 2.2 4.3 5.7 4.7 9 1.3 13-1.4 25.1-9 35.8-0.6 1-1.5 1.7-2.3 2.5q-0.5-0.2-1-0.4z"/>
	<path id="Layer" class="s0" d="m242.9 167.7c0-0.4 0.1-1.4 0.2-2.8 3.6 0.3 5.8 2.6 7.9 4.9 5.2 5.7 8.6 23.5 6.5 32.4-1.2-1.9-2.4-3.3-3-5-3-8-7.8-14.6-14.7-19.7-3-2.3-0.6-4.8-0.2-7.1 0.1-0.9 1.7-1.5 3.3-2.7z"/>
	<path id="Layer" class="s0" d="m149.7 93.4c-2.3 1.9-4.5 3.8-6.9 5.6-0.6 0.5-1.5 0.7-2.2 0.6q-20.6-2-41.1-4.1c-0.2 0-0.3-0.2-0.5-0.3 3.3-4.3 40.3-6.5 50.7-1.8z"/>
	<path id="Layer" class="s0" d="m107.4 83.9c14.6-1.7 29.1-3.6 43.6-5.1 3.6-0.3 7.4 0.6 12.1 1.1-4.8 5.2-7.8 9.4-15.4 8.1-9.9-1.6-20.1-1.1-30.2-1.8-3.4-0.2-6.8-1-10.2-1.6q0.1-0.3 0.1-0.7z"/>
	<path id="Layer" class="s0" d="m232.8 170.6q-0.1-0.2-0.2-0.4c-4.2-3.4-8.5-6.8-13.2-10.5 1.1-1.8 2.5-4.5 4-6.9 0.4-0.5 1.6-0.8 2.3-0.7 0.8 0 1.5 0.6 2.3 0.9 6.9 2.7 13.9 5.4 20.7 8.2 1.5 0.6 2.7 2 4.5 3.3-4.7-0.2-8.5-0.9-12.1-0.4-5.1 0.6-3.3 5.8-4.9 8.9-1.2-0.8-2.3-1.6-3.4-2.4z"/>
	<path id="Layer" class="s0" d="m101 109.7c11.9-5 24.1-7.7 37.9-5.1-1.6 2.8-2.9 5.1-4.3 7.3-0.4 0.6-1.4 1.1-2.1 1.1-10.5-0.7-20.9-1.5-31.4-2.3q-0.1-0.5-0.1-1z"/>
	<path id="Layer" class="s0" d="m142.3 229.6c-3.6-3.1-4.5-5.9-2.5-8.9 2.3-3.5 1.5-6-1.7-8.4-3.2-2.4-6.2-5.1-9.3-7.6q0.5-0.8 1-1.5c2.1-1 4.1-2 6.6-3.3 1.2 1.9 2.5 3.7 3.6 5.5 2.5 4.2 5.9 7 10.9 7.7 1.8 0.3 3.4 1.9 5.1 3.7-7.7 1-12.5 4.6-13.7 12.8z"/>
	<path id="Layer" class="s0" d="m220.8 314.3c14.8 4.2 28.5 10 40.5 19.3q-0.2 0.5-0.3 1c-5.3-0.8-10.6-1.5-15.9-2.3-0.8-0.1-1.7-0.5-2.2-1.1-6.1-6.9-13.9-11.4-21.7-16-0.2-0.1-0.2-0.4-0.4-0.9z"/>
	<path id="Layer" class="s0" d="m73.7 426.1c6.6-10.6 16-16.1 27.3-20.5-2 4.6-3.6 8.6-5.3 12.5-0.2 0.5-0.8 1-1.3 1.1-6.6 0.5-12.4 3.5-18.2 6.4-0.5 0.2-1.1 0.2-2.5 0.5z"/>
	<path id="Layer" class="s0" d="m100.1 121.5c10-4.3 20.1-7.1 31.7-4.7-0.3 2.3-0.6 4.6-1.2 6.9-0.1 0.5-1.3 1.1-1.9 1-9.3-0.8-18.6-1.7-27.8-2.6-0.2 0-0.4-0.3-0.8-0.6z"/>
	<path id="Layer" class="s0" d="m299.4 387c-10.4-0.1-19.2-4.8-28.2-10 1.4-3.4 2.7-6.7 4-10q0.4-0.2 0.8-0.4c3.7 11.7 13.5 15.9 23.4 20.4z"/>
	<path id="Layer" class="s0" d="m256.9 173.6c5.5 0.8 7.5 2.2 7.5 6.8 0 8.4-0.6 16.9-1.1 25.4 0 0.4-0.4 0.7-0.5 1-1.9-11-3.9-21.9-5.8-33.2z"/>
	<path id="Layer" class="s0" d="m279.4 338.8c-11.4-0.1-19.4-5.7-23.3-16.5 8.9 4 17.6 7.5 23.3 16.4z"/>
	<path id="Layer" class="s0" d="m210.6 239.6c-9.5 0.5-21-6-24.3-13.6 9.8 1.7 17.5 5.9 24.3 13.6z"/>
	<path id="Layer" class="s0" d="m127.3 127.5c0.6 3.5-0.2 5.4-3.9 5.8-5 0.4-9.9 1.2-14.9 1.4 5.3-5 11.2-8.3 18.8-7.2z"/>
	<path id="Layer" class="s0" d="m95.4 422.4c-0.7 4.2-1.2 7.4-1.8 10.6-0.1 0.6-0.8 1.2-1.3 1.5-3.1 1.7-6.1 3.3-8.9 4.7 1.1-6.9 5.2-12.2 12-16.8z"/>
	<path id="Layer" class="s0" d="m85.7 453c1.2-5.4 2-10.6 7.4-13.7 1.6 6.7-1.4 10.8-7.4 13.7z"/>
	<path id="Layer" class="s0" d="m263.9 174.3c-3.6-1.4-6.7-2.5-9.5-3.9-0.8-0.5-0.9-2.2-1.4-3.4 1.1-0.2 2.1-0.8 3.1-0.7 3.7 0.2 6.4 2.8 7.8 8z"/>
	<path id="Layer" class="s0" d="m363.3 206.9q0.3-0.2 0.5-0.3 2.5-0.6 5-1.2 0.5 0.5 0.9 1-3.4 5.1-6.8 10.3-0.8-0.3-1.5-0.7 1-4.5 1.9-9.1z"/>
	<path id="Layer" class="s0" d="m375.6 206.3q-3.8 5.5-7.6 11.1-0.8-0.4-1.5-0.7c1.4-3.6 2.6-7.4 4.3-10.9 0.3-0.7 2.5-0.4 3.9-0.6q0.4 0.5 0.9 1.1z"/>
	<path id="Layer" class="s0" d="m124.1 136.5c-0.7 6.3-0.7 6.3-5.7 6.1-1.6 0-3.2 0-4.8 0q-0.2-0.5-0.4-1c3.4-1.6 6.9-3.2 10.9-5.1z"/>
	<path id="Layer" class="s0" d="m335 191.4c4.9 1.8 5.2 2.3 3 5.9-1 1.7-2.1 3.3-3.2 5q-0.6-0.1-1.1-0.2c0.4-3.5 0.8-7 1.3-10.7z"/>
	<path id="Layer" class="s0" d="m332 185.5c-2.4 2.2-4.4 4-6.4 5.8q-0.7-0.4-1.3-0.8c0.6-2.8 1.3-5.7 2.1-9.3 2.1 1.5 3.3 2.5 5.6 4.3z"/>
	<path id="Layer" class="s0" d="m329 195.2c0.5-2.7 1-5.5 1.6-8.9 1.9 1.3 3.1 2.1 4.6 3.1-1.8 2.3-3.5 4.2-5.1 6.2q-0.5-0.2-1.1-0.4z"/>
	<path id="Layer" class="s0" d="m345.5 198.2c-2.3 2.8-4 4.9-5.7 7q-0.4-0.2-0.9-0.4c0.7-2.9 1.3-5.8 2.1-9.3 1.9 1.1 3.1 1.9 4.5 2.7z"/>
	<path id="Layer" class="s0" d="m258.4 431.2c-6 0-6.4-0.6-4.6-7.8 1.7 2.9 3 5.2 4.6 7.8z"/>
	<path id="Layer" class="s0" d="m569.5 581.2q0.1-0.9 0.2-1.9 0.2 0.9 0.3 1.8-0.2 0.1-0.5 0.1z"/>
	<path id="Layer" class="s0" d="m665.6-299.2q-0.3-1.5-0.6-2.9 0.4-0.1 0.7-0.2 0.4 1.5 0.8 2.9-0.5 0.1-0.9 0.2z"/>
	<path id="Layer" class="s0" d="m567.7 444q0.1-0.2 0.2-0.3c0.1 0.1 0.3 0.3 0.3 0.4 0.1 0.1-0.1 0.2-0.1 0.3q-0.2-0.2-0.4-0.4z"/>
	<g id="Layer">
		<path id="Layer" fill-rule="evenodd" class="s0" d="m23.6 638.7q0 5.1-3.2 8.4-3.6 3.9-12.7 3.9-0.7 0-2 0-1.3-0.1-2 0-10.2-0.1-12.1-0.5-0.8-0.1-0.8-0.8 0-3 0.3-9 0.4-6 0.4-9 0-3.2-0.3-12.1-0.1-2.2-0.3-6.8l-0.1-0.4q0-0.5 0.9-0.6 0.9-0.1 6.4-0.1 8.8 0 10.3 0 6.8 0.3 10.1 2.2 4.3 2.7 4.3 8.9 0 1.7-1 3.5-0.7 1.3-1.9 2.6-1 1.1-1 1 0 0.2 0.7 0.7 1.9 1.1 3 3.5 1 2.2 1 4.6zm-11.9-15.6q0-2.4-2.4-3.2-1.3-0.4-4.3-0.4-3 0-3 0.5 0 0.5-0.1 1.6-0.1 1-0.1 1.5 0 2.8 0.4 3.1 0.3 0.3 3.6 0.3 5.9 0 5.9-3.4zm0.8 15.5q0-2.5-2-3.4-1.4-0.6-4.4-0.5-3.5 0-3.8 0.2-0.3 0.3-0.3 3.4 0 3.3 0.3 3.6 0.4 0.4 4 0.4 3 0 4.2-0.5 2-0.8 2-3.2z"/>
		<path id="Layer" class="s0" d="m52.6 651.1q-2.4 0-6.2-0.1-5-0.1-6.2-0.1l-8.3-0.1q-1.3 0-3.6-0.2-0.8-0.1-0.8-0.8 0-3 0.1-9.1 0.1-6 0.1-9 0-3.2-0.2-9.6-0.2-6.4-0.2-9.6 0-0.6 0.9-0.6 0.8 0 2.4 0 1.7 0.1 2.5 0.1 0.9 0 2.7-0.1 1.8-0.1 2.7-0.1 0.4 0 0.4 0.5v0.4q-0.4 5.2-0.8 15.6v7.4q0 3.5 0 5.1 0.1 0.4 0.1 0.7 0 0.3 0.4 0.4 0 0 0.7 0 2.5 0 7.5-0.2 5-0.3 7.4-0.3 0.8 0 0.8 0.6 0 4.8-0.7 8.2-0.1 0.7-0.6 0.9-0.1 0-1.1 0z"/>
		<path id="Layer" fill-rule="evenodd" class="s0" d="m94.6 650q0 0.4-0.6 0.6-0.9 0.3-5.2 0.3-4 0-5.1-0.3-0.9-0.1-1.2-1.2-0.9-4-1.4-4.3-0.5-0.2-7.5-0.2-4.7 0-5 0.3-0.4 0.4-1 3-0.6 2.2-1.3 2.4-0.9 0.3-6.3 0.3-4.2 0-4.2-0.8 0-0.8 6.2-17.7 6.8-18.4 7.4-20.2 0.3-1.1 0.7-1.1 0.8 0 2.4 0.2 1.5 0.1 2.3 0.1 0.7 0 2.2-0.1 1.4-0.1 2.2-0.1 0.5 0 0.9 0.9 1.4 2.9 8 20 6.5 17.1 6.5 17.9zm-19.6-25.3q-0.6 1.3-1.9 5.3-1.5 4.4-1.5 5.1 0 0.5 1.6 0.5 0.9 0.1 2.8 0.1 1.9 0 2.1-0.4 0-0.2 0-0.4 0-0.9-1.2-5.1-1.3-4-1.9-5.1z"/>
		<path id="Layer" class="s0" d="m129.8 644.4q0 0.4-0.6 1.1-5.1 6.1-13.5 6.1-8.7 0-14-5.9-5.3-5.7-5.3-14.4 0-8.4 5.2-14.3 5.3-6.1 13.5-6.1 9 0 14.1 5.5 0.6 0.6 0.6 1.1 0 0.5-2 3.9-1.9 3.4-2.4 3.8-0.2 0.2-0.5 0.2-0.2 0-1.4-1.1-1.5-1.4-2.9-2.1-2.2-1.1-4.6-1.1-4 0-6.5 3-2.2 2.9-2.2 7 0 4.2 2.2 7.1 2.4 3.1 6.5 3.1 2.4 0 4.6-1.1 1.4-0.7 2.9-1.9 1.2-1.1 1.3-1.1 0.3 0 0.6 0.3 0.4 0.5 2.4 3.5 2 3.1 2 3.4z"/>
		<path id="Layer" class="s0" d="m166.9 649.1q0 1.2-1.1 1.5-0.8 0.3-4.3 0.3-3.4 0-5-0.3-0.8-0.1-1-0.2-0.2-0.2-0.6-0.8-2-3.7-4-7.4-3.3-6-3.9-6.6-3 1-3 1.5 0 2.1 0.2 6.3 0.1 4.2 0.1 6.3 0 0.8-0.7 0.9-1.5 0.3-5.2 0.3-3.6 0-4.8-0.3-0.8-0.1-0.8-0.8 0-3 0.3-9 0.3-6.1 0.3-9.1 0-3.2-0.3-9.6-0.3-6.5-0.3-9.7 0-0.6 0.6-0.6 0.9 0 2.6 0.1 1.7 0.1 2.6 0.1 0.9 0 2.6-0.1 1.8-0.1 2.6-0.1 0.5 0 0.5 0.5 0 2.1-0.2 6.2-0.2 4.1-0.2 6.2 0 2.4 1.3 2.4 3.3 0 5.1-1.8 1.4-1.4 2.7-4.9 0.9-2.7 2.9-7.9 0.4-0.7 1.3-0.7 0.7 0 2.2 0.1 1.4 0.1 2.1 0.1 0.8 0 2.3-0.1 1.5 0 2.2 0 0.6 0 0.6 0.6 0 0.9-1.1 4.5-3.5 10.4-7.9 13-0.9 0.6-0.9 0.9 0 0 5.1 8.3 5.1 8.3 5.1 9.9z"/>
		<path id="Layer" fill-rule="evenodd" class="s0" d="m220.3 631q0.1 8.2-5.2 14.1-4.6 5.4-13 5.7-1.6 0-8.8 0-1.3 0-4.1-0.1-2.7 0-4.1 0-0.8 0-0.8-0.7 0.1-3 0.3-9.1 0.2-6.1 0.2-9.2 0-3.2-0.2-9.5-0.3-6.4-0.3-9.5 0.1-0.6 0.8-0.7 2-0.2 6.5-0.2 8.5 0 11 0.2 6.6 0.7 10.3 3.3 3.5 2.5 5.5 7 1.9 4.2 1.9 8.7zm-10.6 0q0.1-4.7-2.8-7.6-2.8-3.1-7.4-3.1-4.3 0-4.3 1.1 0 1.7 0 4.9-0.1 3.3-0.1 5 0 1.6 0.1 4.8 0 3.2 0 4.8 0 1.2 4.4 1.2 4.8 0 7.6-3.1 2.5-3.1 2.5-8z"/>
		<path id="Layer" fill-rule="evenodd" class="s0" d="m257.6 650.4q0 0.2-0.5 0.3-1.1 0.1-5.3 0.1-3.6 0-4.9-0.1-0.6-0.1-0.7-0.2-0.2-0.1-0.4-0.5-0.4-1.1-1.2-3.2-1.1-2.8-3.4-8.2-0.5-1.1-2.3-1.2 0.8 0.1-2.9 0-0.4 0.1-0.4 1.5 0 1.8 0.4 5.6 0.3 3.7 0.3 5.6 0 0.5-0.2 0.5-0.4 0.1-0.8 0.1-1.6 0.1-5.1 0.1-4 0-4.8-0.2-0.8-0.1-0.8-0.8 0.1-3.1 0.3-9.2 0.3-6.1 0.3-9.2 0-11.7-0.5-18.3v-0.4q-0.1-0.5 0.8-0.6 0.9-0.2 8.5-0.4 5.1-0.1 8.2-0.1 6.3 0 10.3 2.9 4.5 3.2 4.5 9.3 0 4-1.2 6.4-1.1 2.4-4.3 4.7-0.6 0.4-0.6 0.8 0 0 3.4 7 3.3 6.9 3.3 7.7zm-11.6-24.9q0-3.3-2.2-4.6-1.7-1-5.4-1-2.6 0-2.8 0.8-0.1 0.9-0.1 5.4 0 0.6 0 1.9 0 1.2 0 1.8 0 0.2 0.9 0.3 1.7 0.3 3.5 0.2 6.1 0.1 6.1-4.8z"/>
		<path id="Layer" fill-rule="evenodd" class="s0" d="m297.3 650q0 0.4-0.7 0.6-0.8 0.3-5.2 0.3-3.9 0-5-0.3-1-0.1-1.2-1.2-1-4-1.5-4.3-0.5-0.2-7.4-0.2-4.7 0-5 0.3-0.5 0.4-1.1 3-0.5 2.2-1.3 2.4-0.9 0.3-6.3 0.3-4.2 0-4.2-0.8 0-0.8 6.2-17.7 6.8-18.4 7.4-20.2 0.3-1.1 0.8-1.1 0.7 0 2.3 0.2 1.5 0.1 2.3 0.1 0.8 0 2.2-0.1 1.5-0.1 2.2-0.1 0.5 0 1 0.9 1.3 2.9 7.9 20 6.6 17.1 6.6 17.9zm-19.7-25.3q-0.5 1.3-1.9 5.3-1.5 4.4-1.5 5.1 0 0.5 1.6 0.5 0.9 0.1 2.9 0.1 1.8 0 2-0.4 0-0.2 0-0.4 0.1-0.9-1.2-5.1-1.3-4-1.9-5.1z"/>
		<path id="Layer" class="s0" d="m336.5 649.8q0.1 0.7-0.8 0.7-0.5 0-3-0.6-2.5-0.6-3.1-0.8-5.8 2.2-11.1 2.2-8.5 0-14-5.7-5.4-5.6-5.4-14.2 0-8.7 5.2-14.5 5.5-6 14.1-6 4.2 0 7.9 1.6 4.1 1.8 6.4 5 0.4 0.7 0.4 0.9 0 0.9-2.5 4-2.4 3.1-3.2 3.1-0.1 0-1.2-1.1-1.4-1.4-2.8-2.1-2.1-1.2-4.6-1.2-4.2 0-6.6 3.1-2.3 2.9-2.3 7.1 0 4.5 2.3 7.2 2.5 2.7 6.9 2.7 2.9 0 6.3-1.4 0-0.9-0.5-4.7-0.3-2.9-0.3-4.6 0-0.6 0.3-0.7 0.2 0 0.5 0 0.8 0 2.4 0.1 1.6 0.2 2.5 0.2 0.8 0 2.6-0.1 1.8-0.2 2.7-0.2 0.7 0 0.7 1 0 1.3-0.2 4-0.1 2.6-0.1 4 0 3.5 0.5 10.7z"/>
		<path id="Layer" fill-rule="evenodd" class="s0" d="m378.9 631.3q0 8.6-5.5 14.5-5.7 5.9-14.3 5.9-8.5 0-14.2-6-5.5-5.8-5.5-14.4 0-8.6 5.5-14.5 5.7-6 14.2-6 8.5 0 14.2 6 5.6 5.9 5.6 14.5zm-10.5-0.1q0-4.1-2.5-7-2.7-3.1-6.8-3.1-3.9 0-6.6 3.2-2.6 3-2.6 7 0 4.2 2.4 7 2.6 3 6.8 3 3.9 0 6.6-3.1 2.7-3 2.7-7z"/>
		<path id="Layer" class="s0" d="m420 612.7q0 3.1-0.2 9.4-0.3 6.4-0.3 9.6v18.2q0 0.7-0.8 0.7-0.7 0-2 0.1-1.4 0.1-2 0.1-0.7 0-2.2-0.2-1.4-0.1-2.1-0.1-0.5 0-1.2-0.9-2-2.7-9-11.9-1.9-2.5-5.8-7.6-0.1-0.1-0.4-0.3-0.3 0.2-0.3 0.6 0 3.2 0.2 9.7 0.2 6.4 0.2 9.6 0 1-0.7 1h-9.6q-0.8 0-0.8-0.9 0-3 0.3-9 0.3-6.1 0.3-9.1 0-3.2-0.3-9.5-0.3-6.3-0.3-9.5 0-0.6 1.1-0.6 1.6 0 4-0.2 0.5-0.1 2.2-0.4 1.3-0.2 2.2-0.2 0.3 0 1 0.9l10.3 14.2q1.4 1.9 4.2 5.5 0.7 0.9 1.2 0.9 0.3 0 0.3-2.2 0-2.9-0.3-8.7-0.3-5.8-0.3-8.8 0-1 0.6-1 1.6 0 5-0.1 3.3-0.2 5-0.2 0.5 0 0.5 0.9z"/>
		<path id="Layer" class="s0" d="m466.3 620.3q0 0.5-0.6 0.5-1.1 0-8.3-0.4-0.2 7-0.2 9.8 0 3.2 0.2 9.8 0.3 6.6 0.3 9.8 0 0.6-0.2 0.7-0.1 0.1-0.8 0.1-1.7 0.3-4.9 0.3-3.6 0-5-0.3-0.8-0.1-0.8-0.8 0-3.3 0.3-9.8 0.3-6.6 0.3-9.8 0-2.2-0.2-9.6-5.6 0.5-8.9 0.5-0.4 0-0.4-0.3 0-0.3 0.4-2.1 0.4-1.9 0.5-2.4 0.1-1.3 0.2-2.6 0.2-2 0.6-2 0.1 0 0.4 0 4.5 0.6 13.3 0.6 2.5 0 9.2-0.6 3.6-0.2 3.6-0.2 0.6 0 0.7 0 0 0.1 0.1 0.6 0 0.7-0.1 2.1 0 1.4 0 2 0 0.7 0.1 2.1 0.2 1.3 0.2 2z"/>
		<path id="Layer" class="s0" d="m501 621.9q0 1.1-0.4 2-3.6 7.2-9.9 15.1-0.9 1.2-0.9 2.1 0 1.5 0.2 4.4 0.1 3 0.1 4.4 0.1 0.5-0.2 0.6 0 0-0.7 0.2-1 0.1-5 0.1-4 0-5.1-0.1-0.8-0.2-0.8-0.8 0-1.5 0.2-4.5 0.3-3 0.3-4.5 0-0.9-0.7-1.9-3.3-4.8-9.5-14.5-0.7-1.1-0.7-1.8 0-1.7-0.2-5-0.1-3.3-0.1-5 0-0.9 0.5-0.9 1.7 0 5.1 0.2 3.5 0.1 5.2 0.1 0.6 0 0.6 0.4 0 1.4-0.1 4.3-0.1 2.8-0.1 4.2 0 0.9 2.4 4.2 2 2.6 3.2 4 1.2-1.3 3-4 2.4-3.3 2.4-4 0-1.4-0.2-4.2-0.2-2.8-0.2-4.2 0-0.6 0.2-0.7h0.7q1.7 0 5-0.1 3.4-0.2 5.1-0.2 0.5 0 0.5 1.2 0 1.5 0.1 4.5 0 2.9 0 4.4z"/>
		<path id="Layer" fill-rule="evenodd" class="s0" d="m537.5 650.4q0 0.2-0.6 0.3-1 0.1-5.3 0.1-3.6 0-4.9-0.1-0.6-0.1-0.7-0.2-0.1-0.1-0.4-0.5-0.4-1.1-1.2-3.2-1.1-2.8-3.4-8.2-0.5-1.1-2.3-1.2 0.9 0.1-2.8 0-0.4 0.1-0.4 1.5 0 1.8 0.3 5.6 0.4 3.7 0.4 5.6 0 0.5-0.3 0.5-0.4 0.1-0.8 0.1-1.6 0.1-5.1 0.1-3.9 0-4.7-0.2-0.8-0.1-0.8-0.8 0-3.1 0.3-9.2 0.3-6.1 0.3-9.2 0-11.7-0.6-18.3v-0.4q0-0.5 0.9-0.6 0.9-0.2 8.4-0.4 5.2-0.1 8.2-0.1 6.3 0 10.3 2.9 4.5 3.2 4.5 9.3 0 4-1.1 6.4-1.2 2.4-4.3 4.7-0.7 0.4-0.7 0.8 0 0 3.4 7 3.4 6.9 3.4 7.7zm-11.6-24.9q-0.1-3.3-2.3-4.6-1.7-1-5.3-1-2.7 0-2.8 0.8-0.2 0.9-0.2 5.4 0 0.6 0 1.9 0.1 1.2 0.1 1.8 0 0.2 0.8 0.3 1.7 0.3 3.6 0.2 6.1 0.1 6.1-4.8z"/>
		<path id="Layer" class="s0" d="m569 642q-0.1 1.2-0.5 4.4-0.5 3.5-0.9 4.1-0.3 0.6-0.9 0.6-0.3 0-0.8-0.1-2.1-0.3-11.8-0.3-2.2 0-6.4 0-4.2-0.1-6.3-0.1-0.9 0-0.9-0.8 0-3.1 0.4-9.3 0.3-6.2 0.3-9.3 0-3.1-0.3-11.7-0.1-2.3-0.3-6.7l-0.1-0.4q0-0.6 0.7-0.6 2.1 0 6.2 0.1 4.1 0.1 6.2 0.1 2 0 6-0.1 4.1-0.1 6.1-0.1 1.5 0 1.7 1.1 0.1 0.6 0.4 3.8 0.3 3.3 0.3 4 0 0.5-0.5 0.5-0.2 0-0.6 0-7.4-0.6-13.2-0.6-1.5 0-1.8 0.7-0.2 0.3-0.2 2.1 0 1.9 0.6 2.5 0.4 0.5 1.8 0.5 0.2 0 1 0 0.8 0 1.4 0 3.5 0 7-0.2 0.3-0.1 1.6-0.2 0.9-0.1 1.5-0.1 0.6 0 0.6 0.7 0-0.6-0.5 4.2-0.2 2.2-0.2 4.4 0 0.6-0.8 0.6l-2.5-0.3q-1.6-0.2-7.2-0.2h-2.9q-1.2 0-1.4 0.6 0 0.1 0 1.7 0 2.1 0.3 2.7 0.5 1.1 3.5 1.3 0 0 4.1 0 1.4 0 4.3-0.3 2.9-0.3 4.4-0.3 0.5 0 0.6 1z"/>
		<path id="Layer" class="s0" d="m591.5 637.9q0 5.6-4.7 9.6-4.2 3.6-10.1 4.5-0.2 0.1-0.4 0.1-0.6 0-2.8-3.9-2.2-3.9-2.2-4.8 0-0.3 0.4-0.4 4-0.9 5.3-1.5 2.9-1.4 2.9-4.3 0-1.8-1.9-4-3.2-3.7-3.5-4.1-1.9-2.9-1.9-6.4 0-5.1 4.7-8.4 3.8-2.8 9.4-3.6 0.3-0.1 0.4-0.1 0.4 0 0.7 0.7 0.7 2 3.3 7.3 0.1 0.2 0.1 0.3 0 0.5-0.5 0.5-0.2 0-0.7-0.1-0.6-0.1-0.8-0.1-2 0-3.5 0.9-1.8 1.1-1.8 2.9 0 1.7 2 4.2 3.5 4.4 3.6 4.6 2 3.1 2 6.1z"/>
	</g>
</svg>